<svg width="37" height="45" viewBox="0 0 37 45" fill="none" xmlns="http://www.w3.org/2000/svg">
<path d="M3.36011 0.69043V2.37043V3.37043V7.37043H4.22011H4.36011C4.36011 7.37043 6.60011 3.37043 10.4601 3.37043H17.6201V39.2004C17.4801 40.3204 16.7701 42.4504 14.0901 42.4504H12.0001V44.0004H27.0301V42.4604H24.9401C22.0701 42.4604 21.4601 40.0304 21.3801 38.9904V3.38043H28.5501C32.3201 3.38043 34.5401 7.18043 34.6401 7.36043V7.38043H34.6501H34.7901H35.6401V3.38043V2.38043V0.69043H3.36011Z" fill="#CBCBCB"/>
<path d="M7.10011 17.08L5.48011 14.27L3.86011 11.46L2.23011 14.27L0.610107 17.08H2.86011V38.38H0.610107L2.23011 41.19L2.86011 42.27V42.39H2.93011L3.86011 44L4.79011 42.39H4.86011V42.27L5.48011 41.19L7.10011 38.38H4.86011V17.08H7.10011Z" fill="#CBCBCB"/>
</svg>
