<svg width="33" height="21" viewBox="0 0 33 21" fill="none" xmlns="http://www.w3.org/2000/svg">
<path d="M20.578 0H1.59223C0.712865 0 0 0.712866 0 1.59223V1.7669C0 2.64627 0.712865 3.35913 1.59223 3.35913H20.578C21.4574 3.35913 22.1703 2.64627 22.1703 1.7669V1.59223C22.1703 0.712866 21.4574 0 20.578 0Z" fill="#44AAD7"/>
<path d="M20.578 5.86523H1.59223C0.712865 5.86523 0 6.5781 0 7.45746V7.63214C0 8.5115 0.712865 9.22437 1.59223 9.22437H20.578C21.4574 9.22437 22.1703 8.5115 22.1703 7.63214V7.45746C22.1703 6.5781 21.4574 5.86523 20.578 5.86523Z" fill="#44AAD7"/>
<path d="M31.3138 11.7383H1.67956C0.751967 11.7383 0 12.4902 0 13.4178C0 14.3454 0.751967 15.0974 1.67956 15.0974H31.3138C32.2414 15.0974 32.9934 14.3454 32.9934 13.4178C32.9934 12.4902 32.2414 11.7383 31.3138 11.7383Z" fill="#44AAD7"/>
<path d="M31.3138 17.6035H1.67956C0.751967 17.6035 0 18.3555 0 19.2831C0 20.2107 0.751967 20.9626 1.67956 20.9626H31.3138C32.2414 20.9626 32.9934 20.2107 32.9934 19.2831C32.9934 18.3555 32.2414 17.6035 31.3138 17.6035Z" fill="#44AAD7"/>
<path d="M25.4085 5.37439L31.8916 9.11646C32.0038 9.18124 32.1311 9.21539 32.2606 9.21547C32.3902 9.21554 32.5175 9.18155 32.6298 9.1169C32.7421 9.05225 32.8354 8.95921 32.9004 8.84711C32.9654 8.73501 32.9998 8.6078 33.0001 8.47822V0.99408C32.9998 0.864506 32.9654 0.737292 32.9004 0.625194C32.8354 0.513096 32.7421 0.420056 32.6298 0.355403C32.5175 0.29075 32.3902 0.256758 32.2606 0.256836C32.1311 0.256914 32.0038 0.291059 31.8916 0.355846L25.4085 4.09792C25.2969 4.16301 25.2044 4.25619 25.1401 4.36817C25.0758 4.48015 25.042 4.60703 25.042 4.73615C25.042 4.86528 25.0758 4.99215 25.1401 5.10413C25.2044 5.21611 25.2969 5.30929 25.4085 5.37439Z" fill="#353558"/>
</svg>
