<svg width="33" height="21" viewBox="0 0 33 21" fill="none" xmlns="http://www.w3.org/2000/svg">
<path d="M20.5799 0H1.59237C0.712928 0 0 0.712929 0 1.59237V1.76706C0 2.6465 0.712928 3.35943 1.59237 3.35943H20.5799C21.4593 3.35943 22.1722 2.6465 22.1722 1.76706V1.59237C22.1722 0.712929 21.4593 0 20.5799 0Z" fill="#44AAD7"/>
<path d="M20.5799 5.86523H1.59237C0.712928 5.86523 0 6.57816 0 7.4576V7.6323C0 8.51174 0.712928 9.22466 1.59237 9.22466H20.5799C21.4593 9.22466 22.1722 8.51174 22.1722 7.6323V7.4576C22.1722 6.57816 21.4593 5.86523 20.5799 5.86523Z" fill="#44AAD7"/>
<path d="M31.3166 11.7373H1.67971C0.752034 11.7373 0 12.4893 0 13.417C0 14.3447 0.752034 15.0967 1.67971 15.0967H31.3166C32.2443 15.0967 32.9963 14.3447 32.9963 13.417C32.9963 12.4893 32.2443 11.7373 31.3166 11.7373Z" fill="#44AAD7"/>
<path d="M31.3166 17.6025H1.67971C0.752034 17.6025 0 18.3546 0 19.2823C0 20.2099 0.752034 20.962 1.67971 20.962H31.3166C32.2443 20.962 32.9963 20.2099 32.9963 19.2823C32.9963 18.3546 32.2443 17.6025 31.3166 17.6025Z" fill="#44AAD7"/>
<path d="M32.6336 5.37503L26.1499 9.11743C26.0381 9.18444 25.9103 9.22036 25.7799 9.22149C25.6495 9.22262 25.5212 9.1889 25.4082 9.12384C25.2952 9.05877 25.2016 8.96471 25.1371 8.85137C25.0726 8.73803 25.0395 8.60953 25.0413 8.47914V0.994329C25.0395 0.863938 25.0726 0.735436 25.1371 0.622098C25.2016 0.508761 25.2952 0.4147 25.4082 0.349633C25.5212 0.284566 25.6495 0.250854 25.7799 0.25198C25.9103 0.253106 26.0381 0.28903 26.1499 0.356038L32.6336 4.09844C32.7452 4.16354 32.8377 4.25673 32.902 4.36872C32.9663 4.48071 33.0001 4.6076 33.0001 4.73674C33.0001 4.86587 32.9663 4.99276 32.902 5.10475C32.8377 5.21674 32.7452 5.30993 32.6336 5.37503Z" fill="#353558"/>
</svg>
