<svg width="163" height="63" viewBox="0 0 163 63" fill="none" xmlns="http://www.w3.org/2000/svg">
<path d="M47.4429 39.5081C48.8756 40.6938 49.5673 42.3241 49.5673 44.3497C49.5673 46.4247 48.8756 48.055 47.4429 49.1914C46.0101 50.3771 44.0834 50.9699 41.6131 50.9699H36.9197V56.7503H34.2025V37.7295H41.6131C44.0834 37.7295 46.0596 38.3224 47.4429 39.5081ZM45.5161 47.5116C46.4054 46.7705 46.8994 45.733 46.8994 44.3497C46.8994 42.9664 46.4548 41.9289 45.5161 41.1878C44.6268 40.4467 43.2929 40.1009 41.5637 40.1009H36.9197V48.6479H41.5637C43.2929 48.6479 44.5774 48.2527 45.5161 47.5116Z" fill="#1E115F"/>
<path d="M53.4703 36.5933H56.0888V56.7503H53.4703V36.5933Z" fill="#1E115F"/>
<path d="M70.8608 43.7074C71.8983 44.6954 72.4417 46.1282 72.4417 48.1044V56.7996H69.9715V54.8728C69.5269 55.5644 68.934 56.0585 68.0941 56.4043C67.3037 56.7502 66.3156 56.9478 65.2287 56.9478C63.5983 56.9478 62.3138 56.5525 61.3751 55.7621C60.387 54.9716 59.9424 53.9835 59.9424 52.699C59.9424 51.4145 60.387 50.4264 61.3257 49.6359C62.2644 48.8454 63.6971 48.4996 65.7227 48.4996H69.8727V48.0055C69.8727 46.8692 69.5269 46.0294 68.8846 45.4365C68.2423 44.8437 67.2543 44.5472 66.0191 44.5472C65.1793 44.5472 64.3394 44.6954 63.4995 44.9919C62.709 45.2883 62.0174 45.6341 61.4245 46.1282L60.3376 44.152C61.0787 43.5591 61.968 43.1145 63.0055 42.7687C64.043 42.4722 65.1299 42.2746 66.3156 42.2746C68.2918 42.2252 69.8233 42.7193 70.8608 43.7074ZM68.2424 54.2305C68.9834 53.7859 69.4775 53.1436 69.8233 52.3532V50.3276H65.8215C63.5983 50.3276 62.5114 51.0686 62.5114 52.5508C62.5114 53.2918 62.8078 53.8353 63.3513 54.2799C63.8947 54.6752 64.6852 54.9222 65.6733 54.9222C66.6614 54.9222 67.5507 54.6752 68.2424 54.2305Z" fill="#1E115F"/>
<path d="M89.7828 42.3736L82.7674 58.1831C82.1745 59.6652 81.4334 60.7027 80.5936 61.2956C79.7537 61.8884 78.7656 62.1849 77.6293 62.1849C76.9376 62.1849 76.246 62.0861 75.5543 61.839C74.912 61.592 74.3686 61.2956 73.924 60.8509L75.0602 58.8748C75.8013 59.5664 76.6412 59.9123 77.6293 59.9123C78.2716 59.9123 78.815 59.764 79.2102 59.4182C79.6549 59.0724 80.0007 58.5289 80.3465 57.689L80.7912 56.701L74.418 42.3242H77.1352L82.1745 53.8355L87.1644 42.3242H89.7828V42.3736Z" fill="#1E115F"/>
<path d="M100.701 55.9105C100.306 56.2563 99.8611 56.5034 99.2682 56.6516C98.7248 56.7998 98.1319 56.8986 97.5391 56.8986C96.1063 56.8986 94.97 56.5034 94.1796 55.7129C93.3891 54.9224 92.9938 53.8355 92.9938 52.3534V44.4486H90.5236V42.3242H92.9938V39.1624H95.6123V42.3242H99.7623V44.4486H95.6123V52.2546C95.6123 53.045 95.8099 53.6379 96.2051 54.0331C96.6004 54.4284 97.1438 54.6754 97.8849 54.6754C98.6754 54.6754 99.367 54.4284 99.9105 53.9837L100.701 55.9105Z" fill="#1E115F"/>
<path d="M115.918 43.8063C117.005 44.8438 117.548 46.4248 117.548 48.4504V56.7503H114.93V48.7468C114.93 47.3635 114.584 46.2766 113.942 45.5849C113.25 44.8932 112.311 44.5474 111.076 44.5474C109.643 44.5474 108.557 44.9426 107.717 45.7825C106.926 46.6224 106.482 47.8081 106.482 49.3396V56.7503H103.863V36.5933H106.482V44.3992C107.025 43.7075 107.717 43.1641 108.606 42.8182C109.495 42.423 110.483 42.2254 111.57 42.2254C113.398 42.2254 114.831 42.7688 115.918 43.8063Z" fill="#1E115F"/>
<path d="M135.433 50.4265H123.724C123.872 51.711 124.465 52.6991 125.404 53.4896C126.342 54.2801 127.528 54.6259 128.961 54.6259C130.69 54.6259 132.073 54.033 133.111 52.8967L134.543 54.5765C133.901 55.3176 133.061 55.9104 132.123 56.3056C131.135 56.7009 130.048 56.8985 128.862 56.8985C127.33 56.8985 125.996 56.6021 124.811 55.9598C123.625 55.3176 122.736 54.4777 122.093 53.3414C121.451 52.2051 121.105 50.97 121.105 49.5372C121.105 48.1539 121.402 46.8694 122.044 45.7825C122.686 44.6462 123.526 43.8063 124.613 43.164C125.7 42.5218 126.935 42.2253 128.318 42.2253C129.702 42.2253 130.937 42.5218 132.024 43.164C133.111 43.8063 133.951 44.6462 134.543 45.7825C135.136 46.9188 135.433 48.2033 135.433 49.636C135.482 49.8336 135.433 50.0807 135.433 50.4265ZM125.206 45.5849C124.366 46.3259 123.872 47.3634 123.724 48.5985H132.963C132.814 47.3634 132.32 46.3753 131.48 45.6343C130.64 44.8438 129.603 44.4979 128.318 44.4979C127.083 44.4485 126.046 44.7944 125.206 45.5849Z" fill="#1E115F"/>
<path d="M161.419 43.8061C162.457 44.8436 163 46.4246 163 48.4996V56.7995H160.382V48.796C160.382 47.4127 160.036 46.3258 159.393 45.6341C158.751 44.9424 157.813 44.5966 156.627 44.5966C155.293 44.5966 154.255 44.9918 153.465 45.8317C152.674 46.6716 152.279 47.8573 152.279 49.3888V56.7995H149.661V48.796C149.661 47.4127 149.315 46.3258 148.673 45.6341C148.03 44.9424 147.092 44.5966 145.906 44.5966C144.572 44.5966 143.535 44.9918 142.744 45.8317C141.954 46.6716 141.558 47.8573 141.558 49.3888V56.7995H139.088V42.4228H141.608V44.5472C142.151 43.8061 142.843 43.2627 143.683 42.8674C144.523 42.4722 145.511 42.2746 146.598 42.2746C147.734 42.2746 148.722 42.5216 149.562 42.9662C150.451 43.4109 151.094 44.1026 151.588 44.9424C152.131 44.1026 152.872 43.4603 153.86 42.9662C154.848 42.4722 155.935 42.2746 157.121 42.2746C158.899 42.2252 160.332 42.7686 161.419 43.8061Z" fill="#1E115F"/>
<path d="M16.7879 54.782C18.3263 55.6793 19.9144 56.4271 21.6017 56.9755C22.8919 57.3743 24.2815 57.7233 25.5221 57.6236C28.3012 57.6236 28.2515 60.1661 27.5568 61.213C27.0605 61.9608 26.5643 62.4593 23.1401 61.3626C18.6737 59.9168 10.9817 57.474 4.38141 47.2542C-2.21886 37.0343 0.262442 23.6737 1.50309 20.882C2.74375 18.0902 5.22505 8.1196 24.083 6.12548C42.9409 4.13136 51.8736 26.5652 51.8736 26.5652L55 32.4478C55 32.4478 49.6404 32.049 47.2583 26.8145C44.8763 21.5799 42.4942 19.4362 42.4942 19.4362C42.4942 19.4362 37.1842 13.3542 29.6411 12.7061C22.0979 12.058 15.7954 13.7031 9.49289 22.1283C3.19038 30.5534 5.17542 40.8231 7.16047 44.1633C9.09588 47.4037 10.2373 49.7468 15.6961 54.0342C16.0435 54.2834 16.3909 54.5327 16.7879 54.782Z" fill="url(#paint0_linear)"/>
<path d="M4.76267 15.233C4.56983 15.4916 4.10006 15.2398 4.25997 14.9597C5.49061 12.8038 7.06409 10.5833 8.97092 8.92633C14.2189 4.36614 20.1599 0 32.5371 0C44.9143 0 55.3607 9.65402 57.7866 14.5053C60.7572 19.4051 64.5198 26.779 59.668 30.6115C54.8161 34.444 48.776 29.3987 48.0829 26.8275C47.6006 25.0384 47.0703 23.6955 46.7924 23.0442C46.6669 22.7502 46.5373 22.4638 46.403 22.1737C45.6403 20.5264 42.696 14.6203 38.6267 12.1282C35.6067 10.3332 33.6758 9.26592 30.4578 8.34418C27.9328 7.61649 25.0613 7.08285 21.1501 7.2769C10.7532 7.76203 5.70334 13.9717 4.76267 15.233Z" fill="url(#paint1_linear)"/>
<path d="M55.9348 30.9095H55.6365C52.057 30.6645 49.273 28.3612 48.2787 24.9799C46.6879 19.3933 43.1084 10.5234 30.5306 7.04406C17.9527 3.5647 5.02689 8.90626 1.348 21.2065C1.39772 21.0105 1.44743 20.8635 1.49715 20.6675C1.29829 21.2065 1.14914 21.7456 1 22.2846C4.67889 10.0334 17.6047 4.64282 30.1826 8.12218C42.7604 11.6015 46.3896 20.5204 47.9307 26.058C48.8753 29.4394 51.709 31.7916 55.2885 31.9876H55.5868C58.7685 32.1836 61.3537 30.0274 62 27.1851C61.0057 29.4884 58.6691 31.1055 55.9348 30.9095Z" fill="url(#paint2_linear)"/>
<defs>
<linearGradient id="paint0_linear" x1="8.74289" y1="43.3744" x2="52.76" y2="10.2312" gradientUnits="userSpaceOnUse">
<stop stop-color="#9B3DB4"/>
<stop offset="0.9993" stop-color="#00E6FF"/>
</linearGradient>
<linearGradient id="paint1_linear" x1="1.00361" y1="16.005" x2="61.887" y2="16.005" gradientUnits="userSpaceOnUse">
<stop stop-color="#FF9D00"/>
<stop offset="0.9993" stop-color="#FF55E1"/>
</linearGradient>
<linearGradient id="paint2_linear" x1="4.54047" y1="11.1189" x2="61.3167" y2="29.3457" gradientUnits="userSpaceOnUse">
<stop stop-color="#8927B5"/>
<stop offset="1" stop-color="#8786FC" stop-opacity="0"/>
</linearGradient>
</defs>
</svg>
