<svg width="61" height="61" viewBox="0 0 61 61" fill="none" xmlns="http://www.w3.org/2000/svg">
<path d="M59.58 22.6996C59.0917 18.249 57.061 14.1096 53.84 10.9996C52.3669 9.53049 50.5875 8.40481 48.6289 7.70298C46.6703 7.00115 44.581 6.74049 42.51 6.9396C41.1249 7.10032 39.7745 7.48181 38.51 8.0696C36.0046 9.2371 33.2741 9.84209 30.51 9.84209C27.746 9.84209 25.0154 9.2371 22.51 8.0696C21.2456 7.48181 19.8951 7.10032 18.51 6.9396C10.34 5.9996 2.52001 13.2396 1.45001 22.6996C0.839103 28.2031 0.980401 33.7642 1.87001 39.2296C3.45001 47.8896 7.00001 50.0696 9.73001 50.3796C15.05 50.9696 21.42 45.0996 25.57 39.3796C26.1406 38.6044 26.8854 37.9742 27.7444 37.5398C28.6034 37.1055 29.5525 36.8792 30.515 36.8792C31.4776 36.8792 32.4266 37.1055 33.2856 37.5398C34.1446 37.9742 34.8894 38.6044 35.46 39.3796C39.46 44.8196 45.36 50.3796 50.53 50.3796C50.79 50.3796 51.05 50.3796 51.3 50.3796C54.01 50.0696 57.58 47.8896 59.16 39.2296C60.0496 33.7642 60.1909 28.2031 59.58 22.6996ZM53.22 28.4796C52.9055 28.7946 52.5046 29.0091 52.068 29.0962C51.6315 29.1832 51.1789 29.1388 50.7676 28.9686C50.3563 28.7984 50.0048 28.51 49.7574 28.1399C49.5101 27.7699 49.378 27.3347 49.378 26.8896C49.378 26.4445 49.5101 26.0093 49.7574 25.6393C50.0048 25.2692 50.3563 24.9808 50.7676 24.8106C51.1789 24.6404 51.6315 24.596 52.068 24.683C52.5046 24.7701 52.9055 24.9847 53.22 25.2996C53.6389 25.7228 53.8739 26.2942 53.8739 26.8896C53.8739 27.4851 53.6389 28.0564 53.22 28.4796ZM38.5 28.4796C38.1837 28.1656 37.9677 27.7647 37.8795 27.3278C37.7913 26.8909 37.8349 26.4376 38.0047 26.0255C38.1745 25.6134 38.4628 25.261 38.8332 25.013C39.2036 24.765 39.6393 24.6326 40.085 24.6326C40.5307 24.6326 40.9664 24.765 41.3368 25.013C41.7072 25.261 41.9956 25.6134 42.1654 26.0255C42.3352 26.4376 42.3787 26.8909 42.2905 27.3278C42.2023 27.7647 41.9864 28.1656 41.67 28.4796C41.2486 28.8979 40.6788 29.1326 40.085 29.1326C39.4912 29.1326 38.9215 28.8979 38.5 28.4796ZM47.44 19.5296C47.753 19.843 47.966 20.2421 48.0522 20.6766C48.1384 21.111 48.0938 21.5612 47.9242 21.9704C47.7546 22.3795 47.4675 22.7291 47.0992 22.9751C46.7309 23.2211 46.2979 23.3524 45.855 23.3524C45.4121 23.3524 44.9792 23.2211 44.6109 22.9751C44.2426 22.7291 43.9554 22.3795 43.7858 21.9704C43.6162 21.5612 43.5717 21.111 43.6578 20.6766C43.744 20.2421 43.9571 19.843 44.27 19.5296C44.4774 19.3201 44.7242 19.1537 44.9963 19.0402C45.2684 18.9267 45.5602 18.8683 45.855 18.8683C46.1498 18.8683 46.4417 18.9267 46.7137 19.0402C46.9858 19.1537 47.2326 19.3201 47.44 19.5296ZM44.27 31.0696C44.5846 30.7547 44.9855 30.5401 45.422 30.453C45.8585 30.366 46.3111 30.4104 46.7224 30.5806C47.1337 30.7508 47.4853 31.0392 47.7326 31.4093C47.98 31.7794 48.112 32.2145 48.112 32.6596C48.112 33.1047 47.98 33.5399 47.7326 33.9099C47.4853 34.28 47.1337 34.5684 46.7224 34.7386C46.3111 34.9088 45.8585 34.9532 45.422 34.8662C44.9855 34.7791 44.5846 34.5646 44.27 34.2496C43.8487 33.8277 43.612 33.2559 43.612 32.6596C43.612 32.0634 43.8487 31.4915 44.27 31.0696ZM22 27.8696C22 28.3656 21.803 28.8412 21.4523 29.1919C21.1016 29.5426 20.626 29.7396 20.13 29.7396H17.38V32.4696C17.38 32.9656 17.183 33.4412 16.8323 33.7919C16.4816 34.1426 16.006 34.3396 15.51 34.3396H13.51C13.0158 34.337 12.5427 34.1388 12.1942 33.7884C11.8457 33.438 11.65 32.9638 11.65 32.4696V29.7396H8.94001C8.44579 29.737 7.97272 29.5388 7.62418 29.1884C7.27565 28.838 7.08001 28.3638 7.08001 27.8696V25.8696C7.08001 25.3754 7.27565 24.9012 7.62418 24.5508C7.97272 24.2004 8.44579 24.0022 8.94001 23.9996H11.68V21.3096C11.68 20.8154 11.8757 20.3412 12.2242 19.9908C12.5727 19.6404 13.0458 19.4422 13.54 19.4396H15.54C16.036 19.4396 16.5116 19.6366 16.8623 19.9873C17.213 20.338 17.41 20.8136 17.41 21.3096V23.9996H20.14C20.3881 24.0009 20.6335 24.0515 20.8619 24.1486C21.0903 24.2456 21.297 24.3872 21.4702 24.5649C21.6433 24.7427 21.7793 24.9532 21.8702 25.184C21.9612 25.4149 22.0053 25.6615 22 25.9096V27.8696Z" fill="#363735"/>
<path d="M59.58 22.6996C59.0917 18.249 57.061 14.1096 53.84 10.9996C52.3669 9.53049 50.5875 8.40481 48.6289 7.70298C46.6703 7.00115 44.581 6.74049 42.51 6.9396C41.1249 7.10032 39.7745 7.48181 38.51 8.0696C36.0046 9.2371 33.2741 9.84209 30.51 9.84209C27.746 9.84209 25.0154 9.2371 22.51 8.0696C21.2456 7.48181 19.8951 7.10032 18.51 6.9396C10.34 5.9996 2.52001 13.2396 1.45001 22.6996C0.839103 28.2031 0.980401 33.7642 1.87001 39.2296C3.45001 47.8896 7.00001 50.0696 9.73001 50.3796C15.05 50.9696 21.42 45.0996 25.57 39.3796C26.1406 38.6044 26.8854 37.9742 27.7444 37.5398C28.6034 37.1055 29.5525 36.8792 30.515 36.8792C31.4776 36.8792 32.4266 37.1055 33.2856 37.5398C34.1446 37.9742 34.8894 38.6044 35.46 39.3796C39.46 44.8196 45.36 50.3796 50.53 50.3796C50.79 50.3796 51.05 50.3796 51.3 50.3796C54.01 50.0696 57.58 47.8896 59.16 39.2296C60.0496 33.7642 60.1909 28.2031 59.58 22.6996Z" fill="#363735"/>
<path d="M25.4201 9.1297C21.7379 12.0752 18.5304 15.5694 15.9101 19.4897C13.7737 22.6647 12.0657 26.1078 10.8301 29.7297C8.55204 36.3674 8.137 43.5026 9.63012 50.3597C6.93012 49.9997 3.44012 47.7897 1.87012 39.2297C0.985748 33.7605 0.844469 28.1968 1.45012 22.6897C2.52012 13.2297 10.3401 5.9997 18.5201 6.9397C19.9052 7.10042 21.2557 7.48191 22.5201 8.0697C23.4564 8.50113 24.4263 8.85563 25.4201 9.1297Z" fill="#4B4B4B"/>
<path d="M20.1101 24.0004H18.6201C18.4564 24.0004 18.2944 23.968 18.1433 23.9051C17.9922 23.8422 17.855 23.7499 17.7397 23.6337C17.6245 23.5175 17.5333 23.3796 17.4716 23.228C17.4099 23.0764 17.3788 22.9141 17.3801 22.7504V21.3104C17.3801 20.8145 17.1831 20.3388 16.8324 19.9881C16.4817 19.6374 16.0061 19.4404 15.5101 19.4404H13.5101C13.0159 19.4431 12.5428 19.6413 12.1943 19.9917C11.8457 20.3421 11.6501 20.8162 11.6501 21.3104V22.7904C11.64 23.1098 11.5079 23.4132 11.281 23.6383C11.0541 23.8633 10.7496 23.9929 10.4301 24.0004H8.9401C8.695 24.0004 8.45232 24.0489 8.226 24.143C7.99968 24.2371 7.79419 24.375 7.62134 24.5487C7.44849 24.7225 7.31169 24.9287 7.21881 25.1556C7.12593 25.3824 7.07879 25.6253 7.08011 25.8704V27.8704C7.0801 28.3647 7.27574 28.8388 7.62428 29.1892C7.97281 29.5396 8.44588 29.7378 8.9401 29.7404H10.4301C10.5955 29.7391 10.7595 29.7708 10.9124 29.8338C11.0653 29.8967 11.2041 29.9897 11.3206 30.1071C11.437 30.2245 11.5289 30.364 11.5906 30.5174C11.6523 30.6708 11.6828 30.8351 11.6801 31.0004V32.4904C11.6801 32.9847 11.8757 33.4588 12.2243 33.8092C12.5728 34.1596 13.0459 34.3578 13.5401 34.3604H15.5401C16.0361 34.3604 16.5117 34.1634 16.8624 33.8127C17.2131 33.462 17.4101 32.9864 17.4101 32.4904V31.0004C17.4088 30.8372 17.4399 30.6754 17.5018 30.5243C17.5636 30.3733 17.6549 30.2361 17.7703 30.1206C17.8857 30.0052 18.023 29.9139 18.174 29.8521C18.3251 29.7903 18.4869 29.7591 18.6501 29.7604H20.1401C20.3865 29.7591 20.6303 29.7091 20.8573 29.6133C21.0843 29.5175 21.2902 29.3778 21.463 29.2021C21.6359 29.0265 21.7723 28.8184 21.8645 28.5899C21.9567 28.3613 22.0027 28.1168 22.0001 27.8704V25.8704C22.0001 25.6232 21.9511 25.3784 21.8559 25.1502C21.7606 24.922 21.6211 24.7149 21.4453 24.541C21.2696 24.3671 21.0611 24.2298 20.8319 24.137C20.6027 24.0442 20.3574 23.9978 20.1101 24.0004Z" fill="#D8D8D8"/>
<path d="M40.0801 29.1304C41.3172 29.1304 42.3201 28.1275 42.3201 26.8904C42.3201 25.6533 41.3172 24.6504 40.0801 24.6504C38.843 24.6504 37.8401 25.6533 37.8401 26.8904C37.8401 28.1275 38.843 29.1304 40.0801 29.1304Z" fill="#4B5594"/>
<path d="M50.0001 25.2996C49.6851 25.6142 49.4706 26.0151 49.3835 26.4516C49.2965 26.8882 49.3409 27.3407 49.5111 27.752C49.6813 28.1633 49.9697 28.5149 50.3398 28.7622C50.7098 29.0096 51.145 29.1416 51.5901 29.1416C52.0352 29.1416 52.4703 29.0096 52.8404 28.7622C53.2105 28.5149 53.4989 28.1633 53.6691 27.752C53.8393 27.3407 53.8837 26.8882 53.7967 26.4516C53.7096 26.0151 53.495 25.6142 53.1801 25.2996C52.7582 24.8783 52.1863 24.6416 51.5901 24.6416C50.9938 24.6416 50.422 24.8783 50.0001 25.2996Z" fill="#C44D45"/>
<path d="M45.8601 23.3599C47.0972 23.3599 48.1001 22.357 48.1001 21.1199C48.1001 19.8828 47.0972 18.8799 45.8601 18.8799C44.623 18.8799 43.6201 19.8828 43.6201 21.1199C43.6201 22.357 44.623 23.3599 45.8601 23.3599Z" fill="#EDB463"/>
<path d="M45.8601 34.8999C47.0972 34.8999 48.1001 33.897 48.1001 32.6599C48.1001 31.4228 47.0972 30.4199 45.8601 30.4199C44.623 30.4199 43.6201 31.4228 43.6201 32.6599C43.6201 33.897 44.623 34.8999 45.8601 34.8999Z" fill="#607F52"/>
</svg>
