<svg width="61" height="61" viewBox="0 0 61 61" fill="none" xmlns="http://www.w3.org/2000/svg">
<g clip-path="url(#clip0)">
<path d="M59.57 24.5591C59.07 20.1091 56.98 15.8591 53.83 12.8891C50.56 9.79912 46.5299 8.34912 42.5 8.79912C41.1199 8.95912 39.77 9.32912 38.5 9.91912C33.42 12.2791 27.59 12.2791 22.51 9.91912C21.24 9.32912 19.8899 8.94912 18.51 8.79912C10.33 7.87912 2.50995 15.0891 1.43995 24.5491C0.95995 28.8291 0.80995 35.4191 1.85995 41.0891C3.43995 49.7491 6.99995 51.9291 9.70995 52.2391C15.0399 52.8291 21.4 46.9591 25.5499 41.2591C26.7099 39.6691 28.51 38.7591 30.5 38.7591C32.49 38.7591 34.29 39.6691 35.45 41.2591C39.41 46.6891 45.35 52.2891 50.52 52.2891C50.7799 52.2891 51.04 52.2791 51.29 52.2491C54 51.9391 57.56 49.7591 59.15 41.1091C60.19 35.4191 60.0499 28.8291 59.57 24.5591ZM57.18 40.7291C56.43 44.8391 54.75 49.8291 51.06 50.2391C47.43 50.6691 41.79 46.5591 37.06 40.0691C35.52 37.9591 33.13 36.7491 30.5 36.7491C27.8699 36.7491 25.4799 37.9591 23.94 40.0691C19.21 46.5691 13.5799 50.6591 9.93995 50.2391C6.24995 49.8191 4.57995 44.8391 3.81995 40.7291C2.81995 35.2691 2.95995 28.9091 3.41995 24.7791C4.35995 16.3991 11.18 9.98912 18.28 10.7891C19.45 10.9191 20.58 11.2391 21.66 11.7391C27.2799 14.3391 33.72 14.3391 39.34 11.7391C40.42 11.2391 41.55 10.9191 42.72 10.7891C46.16 10.3991 49.6199 11.6591 52.4599 14.3391C55.27 16.9891 57.13 20.7891 57.58 24.7791C58.04 28.9091 58.18 35.2791 57.18 40.7291Z" fill="#CBCBCB"/>
<path d="M20.0899 25.8988H17.3599V23.1688C17.3599 22.1388 16.5199 21.2988 15.4899 21.2988H13.5299C12.4999 21.2988 11.6599 22.1388 11.6599 23.1688V25.8988H8.92994C7.89994 25.8988 7.05994 26.7388 7.05994 27.7688V29.7388C7.05994 30.7688 7.89994 31.6088 8.92994 31.6088H11.6599V34.3388C11.6599 35.3688 12.4999 36.2088 13.5299 36.2088H15.4899C16.5199 36.2088 17.3599 35.3688 17.3599 34.3388V31.6088H20.0899C21.1199 31.6088 21.9599 30.7688 21.9599 29.7388V27.7688C21.9599 26.7388 21.1199 25.8988 20.0899 25.8988ZM19.9599 29.5988H17.2299C16.1999 29.5988 15.3599 30.4388 15.3599 31.4688V34.1988H13.6599V31.4688C13.6599 30.4388 12.8199 29.5988 11.7899 29.5988H9.05994V27.8988H11.7899C12.8199 27.8988 13.6599 27.0588 13.6599 26.0288V23.2988H15.3599V26.0288C15.3599 27.0588 16.1999 27.8988 17.2299 27.8988H19.9599V29.5988Z" fill="#CBCBCB"/>
<path d="M40.07 30.9898C41.3071 30.9898 42.31 29.9869 42.31 28.7498C42.31 27.5126 41.3071 26.5098 40.07 26.5098C38.8328 26.5098 37.83 27.5126 37.83 28.7498C37.83 29.9869 38.8328 30.9898 40.07 30.9898Z" fill="#CBCBCB"/>
<path d="M50.03 27.16C49.15 28.04 49.15 29.46 50.03 30.33C50.91 31.2 52.33 31.21 53.2 30.33C54.08 29.45 54.08 28.03 53.2 27.16C52.32 26.28 50.9 26.28 50.03 27.16Z" fill="#CBCBCB"/>
<path d="M45.84 25.2085C47.0771 25.2085 48.08 24.2056 48.08 22.9685C48.08 21.7314 47.0771 20.7285 45.84 20.7285C44.6029 20.7285 43.6 21.7314 43.6 22.9685C43.6 24.2056 44.6029 25.2085 45.84 25.2085Z" fill="#CBCBCB"/>
<path d="M45.84 36.7593C47.0771 36.7593 48.08 35.7564 48.08 34.5193C48.08 33.2822 47.0771 32.2793 45.84 32.2793C44.6029 32.2793 43.6 33.2822 43.6 34.5193C43.6 35.7564 44.6029 36.7593 45.84 36.7593Z" fill="#CBCBCB"/>
</g>
<defs>
<clipPath id="clip0">
<rect width="61" height="61" fill="white"/>
</clipPath>
</defs>
</svg>
