<svg width="61" height="47" viewBox="0 0 61 47" fill="none" xmlns="http://www.w3.org/2000/svg">
<path d="M51.1402 23.9355C51.1504 26.7225 52.0964 29.4037 53.791 31.4488C55.4856 33.4939 57.8055 34.754 60.2918 34.9799L61.3401 35.0619V40.3557C61.3401 42.2194 60.6774 44.0068 59.4979 45.3246C58.3183 46.6425 56.7185 47.3828 55.0503 47.3828H6.62983C4.96169 47.3828 3.36187 46.6425 2.18231 45.3246C1.00276 44.0068 0.340088 42.2194 0.340088 40.3557V35.0619L1.38838 35.0033C3.91783 34.844 6.29678 33.6091 8.03706 31.5521C9.77734 29.4951 10.747 26.7719 10.747 23.9414C10.747 21.1109 9.77734 18.3877 8.03706 16.3307C6.29678 14.2737 3.91783 13.0388 1.38838 12.8795L0.340088 12.8209V7.51541C0.340088 5.63616 1.00828 3.83388 2.19766 2.50505C3.38705 1.17622 5.0002 0.429688 6.68224 0.429688H54.9665C55.7969 0.429655 56.6191 0.61334 57.3856 0.970144C58.1522 1.32695 58.8479 1.84981 59.4326 2.50856C60.0174 3.1673 60.4796 3.9489 60.7926 4.80824C61.1056 5.66759 61.2631 6.58767 61.2562 7.51541V12.8092L60.2079 12.9029C57.7385 13.1507 55.4406 14.4188 53.7636 16.4592C52.0866 18.4996 51.1512 21.1655 51.1402 23.9355V23.9355Z" fill="#C44D45"/>
<path d="M13.8316 47.4297H6.62983C4.96169 47.4297 3.36187 46.6893 2.18231 45.3715C1.00276 44.0536 0.340088 42.2662 0.340088 40.4025V35.0619L1.38838 35.0033C3.91783 34.844 6.29678 33.6091 8.03706 31.5521C9.77734 29.4951 10.747 26.7719 10.747 23.9414C10.747 21.1109 9.77734 18.3877 8.03706 16.3307C6.29678 14.2737 3.91783 13.0388 1.38838 12.8795L0.340088 12.8209V7.51541C0.340088 5.63616 1.00828 3.83388 2.19766 2.50505C3.38705 1.17622 5.0002 0.429688 6.68224 0.429688H28.6963C17.3643 3.24055 3.2124 26.2662 13.8316 47.4297Z" fill="#C75554"/>
<path d="M24.2095 19.4847C23.2143 19.4847 22.2415 19.155 21.414 18.5372C20.5865 17.9195 19.9416 17.0415 19.5608 16.0143C19.1799 14.987 19.0803 13.8567 19.2744 12.7662C19.4686 11.6757 19.9478 10.674 20.6515 9.88778C21.3552 9.10157 22.2518 8.56615 23.2279 8.34923C24.2039 8.13232 25.2157 8.24365 26.1351 8.66914C27.0546 9.09464 27.8404 9.81519 28.3933 10.7397C28.9462 11.6642 29.2413 12.7511 29.2413 13.8629C29.2413 15.3539 28.7112 16.7838 27.7675 17.8381C26.8239 18.8924 25.544 19.4847 24.2095 19.4847V19.4847ZM24.2095 10.2674C23.5701 10.2651 22.9444 10.475 22.4118 10.8704C21.8792 11.2659 21.4638 11.8292 21.2181 12.4888C20.9724 13.1484 20.9076 13.8747 21.0319 14.5755C21.1561 15.2763 21.4638 15.9202 21.916 16.4254C22.3682 16.9306 22.9444 17.2744 23.5717 17.4132C24.199 17.552 24.8491 17.4796 25.4395 17.2051C26.0299 16.9306 26.534 16.4664 26.888 15.8714C27.242 15.2764 27.4299 14.5774 27.4278 13.8629C27.425 12.9103 27.0851 11.9975 26.4821 11.3239C25.8792 10.6503 25.0622 10.2705 24.2095 10.2674V10.2674Z" fill="#EDB463"/>
<path d="M37.3868 37.4974C36.3916 37.4974 35.4187 37.1677 34.5913 36.5499C33.7638 35.9322 33.1188 35.0542 32.738 34.027C32.3572 32.9997 32.2575 31.8694 32.4517 30.7789C32.6458 29.6884 33.1251 28.6867 33.8288 27.9005C34.5325 27.1143 35.429 26.5788 36.4051 26.3619C37.3812 26.145 38.3929 26.2563 39.3124 26.6818C40.2318 27.1073 41.0177 27.8279 41.5706 28.7524C42.1235 29.6769 42.4186 30.7638 42.4186 31.8756C42.4158 33.3657 41.8848 34.7938 40.9417 35.8474C39.9987 36.901 38.7204 37.4943 37.3868 37.4974ZM37.3868 28.2801C36.7477 28.2801 36.1231 28.4919 35.5919 28.8888C35.0607 29.2857 34.6469 29.8498 34.4028 30.5096C34.1588 31.1694 34.0954 31.8954 34.2209 32.5954C34.3463 33.2955 34.6549 33.9382 35.1074 34.4422C35.56 34.9462 36.1363 35.2889 36.7633 35.4267C37.3903 35.5646 38.0399 35.4915 38.6296 35.2167C39.2194 34.9418 39.723 34.4777 40.0765 33.8829C40.43 33.2882 40.6176 32.5896 40.6155 31.8756C40.6127 30.921 40.2713 30.0064 39.6661 29.3325C39.0609 28.6585 38.2413 28.2801 37.3868 28.2801V28.2801Z" fill="#EDB463"/>
<path d="M37.7862 9.76836L35.3096 8.52539L24.2014 36.153L26.678 37.396L37.7862 9.76836Z" fill="#EDB463"/>
</svg>
