<svg width="61" height="61" viewBox="0 0 61 62" fill="none" xmlns="http://www.w3.org/2000/svg">
<path d="M54.7599 25.2C54.1399 22.57 53.0999 20.09 51.7199 17.85L54.3199 14.16L47.2499 7.08996L43.5599 9.68996C41.3199 8.30996 38.8499 7.26996 36.2099 6.64996L35.4399 2.20996H25.4399L24.6699 6.64996C22.0399 7.26996 19.5599 8.30996 17.3199 9.68996L13.6299 7.08996L6.55993 14.16L9.15993 17.85C7.77993 20.09 6.73993 22.56 6.11993 25.2L1.67993 25.97V35.97L6.11993 36.74C6.73993 39.37 7.77993 41.85 9.15993 44.09L6.55993 47.78L13.6299 54.85L17.3199 52.25C19.5599 53.63 22.0299 54.67 24.6699 55.29L25.4399 59.73H35.4399L36.2099 55.29C38.8399 54.67 41.3199 53.63 43.5599 52.25L47.2499 54.85L54.3199 47.78L51.7199 44.09C53.0999 41.85 54.1399 39.38 54.7599 36.74L59.1999 35.97V25.97L54.7599 25.2ZM30.4399 44.36C23.0499 44.36 17.0499 38.37 17.0499 30.97C17.0499 23.58 23.0399 17.58 30.4399 17.58C37.8399 17.58 43.8299 23.57 43.8299 30.97C43.8299 38.36 37.8299 44.36 30.4399 44.36Z" stroke="#CBCBCB" stroke-width="2" stroke-miterlimit="10"/>
</svg>
