<svg width="29" height="29" viewBox="0 0 29 29" fill="none" xmlns="http://www.w3.org/2000/svg">
<g clip-path="url(#clip0)">
<path d="M27.5156 11.4577L25.4801 11.1124C25.2681 10.4278 24.9955 9.7675 24.6623 9.13747L25.8618 7.45939C26.3706 6.74455 26.2919 5.7692 25.6679 5.15128L23.8626 3.34599C23.5234 3.00674 23.0751 2.81894 22.5965 2.81894C22.2209 2.81894 21.8635 2.93404 21.5605 3.15213L19.8764 4.35162C19.2221 4.00631 18.5376 3.72159 17.8288 3.50956L17.4895 1.49829C17.3442 0.631989 16.599 0.00195312 15.7206 0.00195312H13.1702C12.2918 0.00195312 11.5466 0.631989 11.4012 1.49829L11.0499 3.55802C10.3714 3.77005 9.71103 4.04872 9.081 4.38797L7.41504 3.18848C7.11213 2.97039 6.74865 2.85529 6.37305 2.85529C5.89447 2.85529 5.44012 3.04309 5.10692 3.38234L3.29557 5.18763C2.67765 5.80555 2.59284 6.78089 3.10171 7.49574L4.31332 9.19805C3.98013 9.83414 3.71358 10.4945 3.5076 11.179L1.49633 11.5183C0.630036 11.6637 0 12.4088 0 13.2872V15.8377C0 16.7161 0.630036 17.4612 1.49633 17.6066L3.55607 17.958C3.7681 18.6365 4.04677 19.2968 4.38602 19.9268L3.19258 21.5867C2.68371 22.3016 2.76246 23.2769 3.38644 23.8948L5.19174 25.7001C5.53099 26.0394 5.97928 26.2272 6.45787 26.2272C6.83346 26.2272 7.19089 26.1121 7.49379 25.894L9.1961 24.6824C9.80796 25.0035 10.4501 25.264 11.1104 25.4699L11.4497 27.5054C11.5951 28.3717 12.3402 29.0018 13.2186 29.0018H15.7751C16.6535 29.0018 17.3987 28.3717 17.5441 27.5054L17.8894 25.4699C18.5739 25.2579 19.2343 24.9853 19.8643 24.6521L21.5424 25.8516C21.8453 26.0697 22.2088 26.1848 22.5844 26.1848C23.0629 26.1848 23.5112 25.997 23.8505 25.6577L25.6558 23.8524C26.2737 23.2345 26.3585 22.2592 25.8496 21.5443L24.6501 19.8602C24.9833 19.2241 25.262 18.5638 25.468 17.8853L27.5035 17.546C28.3698 17.4006 28.9998 16.6555 28.9998 15.7771V13.2266C29.0119 12.3482 28.3819 11.6031 27.5156 11.4577ZM27.3763 15.7771C27.3763 15.8558 27.3217 15.9225 27.243 15.9346L24.6986 16.3586C24.3775 16.4132 24.1231 16.6494 24.0443 16.9584C23.8141 17.8489 23.4628 18.7031 22.9902 19.4967C22.8267 19.7754 22.8388 20.1207 23.0266 20.3872L24.5229 22.4954C24.5653 22.556 24.5593 22.6469 24.5048 22.7014L22.6995 24.5067C22.6571 24.5491 22.6146 24.5552 22.5844 24.5552C22.548 24.5552 22.5177 24.5431 22.4935 24.5249L20.3913 23.0285C20.1309 22.8407 19.7795 22.8286 19.5008 22.9922C18.7072 23.4647 17.853 23.8161 16.9625 24.0463C16.6475 24.125 16.4112 24.3855 16.3628 24.7006L15.9326 27.2449C15.9205 27.3237 15.8539 27.3782 15.7751 27.3782H13.2247C13.1459 27.3782 13.0793 27.3237 13.0672 27.2449L12.6431 24.7006C12.5886 24.3795 12.3523 24.125 12.0434 24.0463C11.1771 23.8221 10.3411 23.4768 9.55958 23.0285C9.43236 22.9558 9.28697 22.9195 9.14763 22.9195C8.98407 22.9195 8.81444 22.968 8.67511 23.0709L6.55479 24.5794C6.5245 24.5976 6.49421 24.6097 6.46392 24.6097C6.43969 24.6097 6.39123 24.6036 6.34882 24.5612L4.54353 22.7559C4.489 22.7014 4.48295 22.6166 4.52535 22.55L6.01563 20.4599C6.20343 20.1934 6.21554 19.842 6.05198 19.5633C5.57945 18.7758 5.21597 17.9216 4.98576 17.0311C4.90095 16.7221 4.64651 16.4859 4.3315 16.4313L1.76895 15.9952C1.69019 15.983 1.63567 15.9164 1.63567 15.8377V13.2872C1.63567 13.2085 1.69019 13.1418 1.76895 13.1297L4.29515 12.7057C4.61622 12.6511 4.87672 12.4149 4.95547 12.0998C5.17962 11.2093 5.52493 10.3491 5.9914 9.55547C6.15496 9.2768 6.13679 8.9315 5.94899 8.671L4.44054 6.55069C4.39813 6.49011 4.40419 6.39924 4.45871 6.34472L6.26401 4.53942C6.30642 4.49701 6.34882 4.49096 6.37911 4.49096C6.41546 4.49096 6.44575 4.50307 6.46998 4.52125L8.56001 6.01152C8.82656 6.19932 9.17792 6.21144 9.45659 6.04787C10.2441 5.57535 11.0983 5.21186 11.9889 4.98166C12.2978 4.89685 12.5341 4.64241 12.5886 4.32739L13.0248 1.76484C13.0369 1.68609 13.1035 1.63156 13.1823 1.63156H15.7327C15.8115 1.63156 15.8781 1.68609 15.8902 1.76484L16.3143 4.29104C16.3688 4.61212 16.6051 4.87261 16.9201 4.95137C17.8349 5.18157 18.7072 5.539 19.519 6.01758C19.7977 6.18115 20.143 6.16903 20.4095 5.98123L22.4995 4.47884C22.5298 4.46067 22.5601 4.44855 22.5904 4.44855C22.6146 4.44855 22.6631 4.45461 22.7055 4.49701L24.5108 6.30231C24.5653 6.35683 24.5714 6.44164 24.529 6.50828L23.0327 8.61042C22.8449 8.87092 22.8327 9.22228 22.9963 9.50095C23.4688 10.2946 23.8202 11.1487 24.0504 12.0393C24.1292 12.3543 24.3897 12.5905 24.7047 12.639L27.249 13.0691C27.3278 13.0813 27.3823 13.1479 27.3823 13.2266V15.7771H27.3763Z" fill="#787878"/>
<path d="M14.5029 8.24023C11.0499 8.24023 8.245 11.0451 8.245 14.4982C8.245 17.9513 11.0499 20.7561 14.5029 20.7561C17.956 20.7561 20.7609 17.9513 20.7609 14.4982C20.7609 11.0451 17.956 8.24023 14.5029 8.24023ZM14.5029 19.1205C11.9525 19.1205 9.88066 17.0486 9.88066 14.4982C9.88066 11.9478 11.9525 9.8759 14.5029 9.8759C17.0534 9.8759 19.1252 11.9478 19.1252 14.4982C19.1252 17.0486 17.0534 19.1205 14.5029 19.1205Z" fill="#787878"/>
</g>
<defs>
<clipPath id="clip0">
<rect width="29" height="29" fill="white"/>
</clipPath>
</defs>
</svg>
