<svg width="61" height="61" viewBox="0 0 61 61" fill="none" xmlns="http://www.w3.org/2000/svg">
<path d="M54.83 24.7205C54.2287 22.1292 53.2158 19.6511 51.83 17.3805L54.43 13.6905L47.31 6.62047L43.62 9.22047C41.3525 7.81718 38.8743 6.78739 36.28 6.17047L35.5 1.73047H25.5L24.73 6.17047C22.1352 6.78556 19.6566 7.81547 17.39 9.22047L13.7 6.62047L6.63003 13.6905L9.22003 17.3805C7.83391 19.6509 6.82104 22.1291 6.22003 24.7205L1.78003 25.5005V35.5005L6.22003 36.2705C6.81922 38.8624 7.83221 41.3409 9.22003 43.6105L6.63003 47.3005L13.7 54.3705L17.39 51.7805C17.83 52.0505 18.27 52.3105 18.73 52.5505C20.6224 53.5657 22.6396 54.3288 24.73 54.8205L25.5 59.2605H35.5L36.28 54.8205C38.8714 54.2195 41.3496 53.2066 43.62 51.8205L47.31 54.4105L54.38 47.3405L51.78 43.6505C53.1675 41.3807 54.1805 38.9023 54.78 36.3105L59.22 35.5405V25.5405L54.83 24.7205ZM30.5 43.8905C27.8517 43.8905 25.2629 43.1052 23.0609 41.6338C20.859 40.1625 19.1427 38.0713 18.1293 35.6246C17.1158 33.1779 16.8507 30.4856 17.3673 27.8882C17.884 25.2908 19.1592 22.9049 21.0319 21.0323C22.9045 19.1597 25.2904 17.8844 27.8878 17.3678C30.4852 16.8511 33.1775 17.1163 35.6242 18.1297C38.0709 19.1432 40.1621 20.8594 41.6334 23.0614C43.1047 25.2634 43.89 27.8522 43.89 30.5005C43.8874 34.0509 42.4758 37.4552 39.9653 39.9657C37.4547 42.4762 34.0505 43.8878 30.5 43.8905Z" fill="#4B5594"/>
<path d="M18.73 52.5505C18.27 52.3105 17.83 52.0505 17.39 51.7805L13.7 54.3705L6.62999 47.3005L9.21999 43.6105C7.83217 41.3409 6.81918 38.8624 6.21999 36.2705L1.73999 35.5005V25.5005L6.17999 24.7205C6.781 22.1291 7.79388 19.6509 9.17999 17.3805L6.62999 13.6905L13.7 6.62047L17.39 9.22047C19.6566 7.81547 22.1351 6.78556 24.73 6.17047L25.5 1.73047H35.5C15.58 16.4405 5.87999 35.0005 18.73 52.5505Z" fill="#6571A7"/>
</svg>
