<svg width="61" height="61" viewBox="0 0 61 61" fill="none" xmlns="http://www.w3.org/2000/svg">
<path d="M52.6302 44.7337C52.9531 43.0197 52.9448 41.2596 52.6058 39.5487L57.2621 28.3115C57.2626 28.304 57.2626 28.2966 57.2621 28.2891C58.0167 26.2233 59.1225 24.3034 60.5307 22.6141C60.8811 22.244 61.022 21.7226 60.9059 21.2263L58.9965 12.9812C58.9738 12.895 58.9396 12.8122 58.8949 12.7351C58.8867 12.7199 58.8837 12.7016 58.8756 12.6874C58.8674 12.6731 58.8319 12.6386 58.8115 12.6121C58.7699 12.5512 58.7219 12.495 58.6682 12.4444C58.6328 12.4195 58.5958 12.3971 58.5574 12.3773C58.5078 12.3408 58.455 12.3088 58.3998 12.2817C58.3231 12.2528 58.2432 12.2333 58.1619 12.2238C58.1385 12.2238 58.1182 12.2085 58.0948 12.2065C57.8999 12.1935 57.7054 12.2369 57.5346 12.3315C57.5193 12.3397 57.501 12.3427 57.4858 12.3519H57.4756L50.2969 16.8323C49.8622 17.1015 49.5924 17.5716 49.5792 18.0828C49.3797 20.2779 48.8015 22.4219 47.8701 24.4197V24.4309L45.543 30.0561C44.4008 29.4489 43.178 29.0073 41.9115 28.7446C42.3909 25.4353 42.5672 22.0891 42.4381 18.7477C44.3306 16.477 45.2389 13.5451 44.9615 10.6022C44.326 4.67704 38.9713 0.397885 38.7425 0.217935C38.3987 -0.0528107 37.9202 -0.0731725 37.5547 0.167386C37.1891 0.407945 37.0185 0.855444 37.1311 1.27832C37.6547 3.24455 37.2012 5.31957 33.3338 9.58652C31.5963 11.2643 31.0455 13.8261 31.94 16.0698C32.282 16.928 32.772 17.7194 33.3877 18.4081C33.1417 19.9789 32.9485 21.4663 32.8153 22.915C32.586 25.3112 32.5269 27.7207 32.6384 30.1252C31.7315 30.6169 30.8824 31.2086 30.107 31.8891L25.1761 10.8035C25.1761 10.7821 25.1558 10.7669 25.1497 10.7476C25.1331 10.6798 25.1093 10.614 25.0785 10.5513L20.042 1.24985C19.5379 0.318863 18.4731 -0.159544 17.4423 0.0818753C16.4115 0.323295 15.6699 1.2248 15.6316 2.28279L15.2494 12.851C15.2496 12.9273 15.2581 13.0033 15.2748 13.0778C15.2748 13.094 15.2748 13.1083 15.2748 13.1235L20.3053 34.5925C19.5117 34.6275 18.7239 34.745 17.9547 34.9432L12.421 21.5791C11.9773 20.5575 10.8004 20.0755 9.76751 20.4923L1.30986 23.9937C0.274761 24.4258 -0.217149 25.6126 0.208813 26.6503L7.71385 44.7551C3.31524 44.986 -0.0990617 48.6784 0.0144697 53.0816C0.128001 57.4848 3.72805 60.9964 8.13271 61.0004H52.8661C55.7718 60.9582 58.4344 59.3691 59.8508 56.8316C61.2672 54.294 61.2222 51.1936 59.7328 48.6982C58.2435 46.2028 55.5359 44.6916 52.6302 44.7337ZM51.5942 18.4183L55.8561 15.7587L54.3473 19.4024C54.1323 19.9213 54.3785 20.5162 54.8974 20.7312C55.4162 20.9463 56.0111 20.7 56.2261 20.1812L57.7349 16.5375L58.8644 21.4307C57.6559 22.905 56.6632 24.5437 55.916 26.2975C54.8561 26.7888 53.6389 26.8143 52.5593 26.3678C51.4797 25.9213 50.6361 25.0434 50.2329 23.9469C50.9469 22.1781 51.4053 20.3165 51.5942 18.4183ZM49.2559 26.4002C49.9285 27.2225 50.8013 27.8579 51.7904 28.2454C52.5767 28.5836 53.4223 28.7619 54.2782 28.77C54.4841 28.7692 54.6898 28.7567 54.8943 28.7324L51.6501 36.5607C50.6787 34.4189 49.1759 32.561 47.2845 31.1632L49.2559 26.4002ZM35.3275 19.1391L40.4353 19.4512C40.4668 20.4008 40.4556 21.3829 40.4241 22.3803C38.7225 22.5018 37.0125 22.4192 35.3306 22.1342C35.2025 22.1159 35.0774 22.1017 34.9503 22.0844C35.052 21.1267 35.176 20.1568 35.3255 19.1391H35.3275ZM34.8426 10.9519C37.5418 7.97409 38.9408 5.68354 39.2661 3.53024C41.2063 5.52651 42.487 8.07022 42.9352 10.8177C43.1488 13.2095 42.4092 15.5889 40.8775 17.4382C38.8693 17.3162 36.883 17.1942 34.9188 17.0722C34.0748 16.2832 33.5893 15.184 33.5746 14.0288C33.5598 12.8735 34.017 11.7622 34.8405 10.9519H34.8426ZM34.7653 24.1106L35.0602 24.1493C36.3702 24.3519 37.6926 24.4643 39.018 24.4858C39.4389 24.4858 39.8822 24.4522 40.3265 24.4177C40.234 25.7261 40.0825 27.0925 39.8903 28.5047C39.6392 28.4914 39.3932 28.467 39.141 28.467C37.6061 28.4698 36.0827 28.7321 34.6352 29.2428C34.5883 27.531 34.6311 25.8179 34.7633 24.1106H34.7653ZM26.9014 35.9995L23.9927 23.6094C23.8567 23.0719 23.3151 22.7424 22.7753 22.8689C22.2354 22.9953 21.8964 23.531 22.0133 24.073L24.6271 35.2248C23.9085 34.9678 23.166 34.7829 22.4108 34.6728L17.9486 15.6306C18.5737 15.9152 19.2524 16.0629 19.9393 16.0637C20.0033 16.0637 20.0714 16.0546 20.1365 16.0515L20.8553 19.1208C20.9327 19.4801 21.198 19.7696 21.5492 19.878C21.9004 19.9864 22.2827 19.8968 22.5492 19.6438C22.8157 19.3907 22.9249 19.0135 22.8347 18.6572L22.1149 15.5859C22.8047 15.2805 23.4131 14.8173 23.891 14.2337L28.4274 33.6307C27.8383 34.3655 27.3269 35.1593 26.9014 35.9995ZM20.6896 13.9379C19.3893 14.19 18.0618 13.6584 17.2949 12.5786L17.424 8.99787C17.7778 9.06394 18.1368 9.09797 18.4966 9.09953C18.8442 9.10099 19.1908 9.06244 19.5295 8.98465C20.2154 8.80453 20.8569 8.48549 21.4144 8.04729L23.1265 11.2071C22.9225 12.5181 21.9687 13.5877 20.6896 13.9399V13.9379ZM17.9049 2.06115C18.0434 2.02908 18.1863 2.09306 18.2546 2.21772L20.4344 6.2488C20.0412 6.60453 19.5716 6.86537 19.0619 7.0113C18.5409 7.10693 18.0048 7.08154 17.4952 6.93709L17.6609 2.35599C17.6664 2.21392 17.7664 2.09315 17.9049 2.06115ZM10.5473 22.367L11.324 24.2438L7.56236 25.8013C7.11641 25.9886 6.86414 26.4641 6.95914 26.9384C7.05414 27.4126 7.47011 27.7543 7.95378 27.7554C8.08735 27.7551 8.2196 27.7288 8.34316 27.6781L12.1048 26.1196L12.8826 27.9984L11.0007 28.7781C10.5522 28.9637 10.2975 29.4405 10.3925 29.9165C10.4875 30.3925 10.9057 30.735 11.3911 30.7342C11.5244 30.7337 11.6562 30.7075 11.7795 30.6569L13.6613 29.8771L14.4391 31.756L10.6744 33.3165C10.2259 33.5021 9.97114 33.9789 10.0661 34.4549C10.1611 34.9309 10.5794 35.2734 11.0648 35.2726C11.198 35.2722 11.3299 35.246 11.4531 35.1953L15.2148 33.6378L16.0373 35.6234C12.7244 37.1355 10.2951 40.0924 9.45438 43.6357L2.08558 25.8684L10.5473 22.367ZM52.8661 58.967H8.13271C4.76378 58.967 2.03271 56.236 2.03271 52.867C2.03271 49.4981 4.76378 46.767 8.13271 46.767C8.7218 46.7651 9.30795 46.85 9.87223 47.0192C10.1771 47.1113 10.5074 47.0552 10.7648 46.8677C11.0222 46.6802 11.1769 46.3829 11.1827 46.0645C11.255 42.4412 13.3496 39.1633 16.6073 37.5754C19.8649 35.9875 23.7374 36.3569 26.636 38.532C26.8922 38.7227 27.223 38.7819 27.5294 38.692C27.8358 38.602 28.0821 38.3734 28.1946 38.0745C30.1809 32.7809 35.6705 29.6672 41.2332 30.6789C46.796 31.6907 50.8376 36.5381 50.8327 42.192C50.8347 43.3547 50.6616 44.5111 50.3193 45.6223C50.2124 45.968 50.2974 46.3444 50.5424 46.6108C50.7873 46.8771 51.1554 46.9931 51.5088 46.9155C51.9546 46.8174 52.4096 46.7676 52.8661 46.767C56.235 46.767 58.966 49.4981 58.966 52.867C58.966 56.236 56.235 58.967 52.8661 58.967Z" fill="#C3C3C4"/>
<path d="M39.3299 15.9623C39.649 15.9635 39.9502 15.8148 40.1432 15.5607C41.4125 13.8428 41.903 11.6712 41.4954 9.57455C41.4087 9.21605 41.1346 8.93263 40.7792 8.83396C40.4238 8.73528 40.0429 8.83683 39.7837 9.09932C39.5246 9.3618 39.428 9.74404 39.5312 10.0981C39.7746 11.588 39.4114 13.1133 38.5227 14.3336C38.2916 14.6416 38.2545 15.0538 38.4267 15.3982C38.5989 15.7427 38.9509 15.9602 39.336 15.9602L39.3299 15.9623Z" fill="#C3C3C4"/>
<path d="M37.9928 46.7664C37.2368 46.7687 36.4912 46.9426 35.8121 47.2747C33.9832 44.7722 30.5682 44.039 27.8733 45.5704C25.1784 47.1019 24.0604 50.4109 25.2743 53.2629C25.4341 53.6378 25.8022 53.8811 26.2097 53.8811C26.3466 53.8814 26.4823 53.8537 26.6082 53.7997C26.8563 53.694 27.0522 53.4941 27.1528 53.244C27.2535 52.9938 27.2507 52.7139 27.145 52.4659C26.9237 51.95 26.8095 51.3945 26.8095 50.8331C26.8095 48.5871 28.6302 46.7664 30.8762 46.7664C32.4535 46.7586 33.8902 47.6726 34.5514 49.1048C34.5734 49.1379 34.5971 49.1698 34.6226 49.2003C34.6386 49.2352 34.6566 49.2691 34.6765 49.302C34.6948 49.3244 34.7212 49.3345 34.7415 49.3559C34.7892 49.4054 34.842 49.4497 34.8991 49.488C34.9499 49.5271 35.0044 49.5612 35.0618 49.5897C35.1208 49.6145 35.1821 49.6335 35.2448 49.6466C35.3073 49.663 35.3713 49.6729 35.4359 49.6761C35.568 49.6751 35.6991 49.6531 35.8243 49.6111C35.8514 49.6061 35.8782 49.5996 35.9046 49.5917C35.9376 49.5704 35.9692 49.547 35.9991 49.5216C36.0357 49.5053 36.0714 49.487 36.1059 49.4667C36.6399 49.0348 37.306 48.7994 37.9928 48.7998C39.1816 48.8017 40.2609 49.4941 40.7581 50.5738C40.9912 51.0848 41.5943 51.3101 42.1052 51.0771C42.6162 50.8441 42.8415 50.241 42.6085 49.73C41.7806 47.9256 39.9781 46.7682 37.9928 46.7664Z" fill="#C3C3C4"/>
<path d="M17.9788 39.7019C17.8253 39.7517 14.2334 40.9941 14.2334 44.7334C14.2334 45.2948 14.6886 45.75 15.2501 45.75C15.8116 45.75 16.2667 45.2948 16.2667 44.7334C16.3497 43.3151 17.2829 42.0882 18.6274 41.6295C19.1609 41.4504 19.4481 40.8727 19.269 40.3393C19.0898 39.8059 18.5122 39.5187 17.9788 39.6978V39.7019Z" fill="#C3C3C4"/>
<path d="M32.2864 38.6037C32.3672 38.6242 32.4502 38.6344 32.5335 38.6342C32.9994 38.6337 33.4054 38.3165 33.5186 37.8646C33.9866 35.9661 35.6672 34.6157 37.6219 34.5675C38.1834 34.5661 38.6374 34.1098 38.636 33.5483C38.6346 32.9868 38.1783 32.5328 37.6168 32.5342C34.7271 32.5726 32.23 34.5623 31.5473 37.3705C31.4109 37.9151 31.7418 38.4672 32.2864 38.6037Z" fill="#C3C3C4"/>
</svg>
