<svg width="41" height="39" viewBox="0 0 41 39" fill="none" xmlns="http://www.w3.org/2000/svg">
<path d="M38.0942 0.300781H2.90563C1.74855 0.300781 0.810547 1.23878 0.810547 2.39586V27.5295C0.810547 28.6866 1.74855 29.6245 2.90563 29.6245H38.0942C39.2512 29.6245 40.1892 28.6866 40.1892 27.5295V2.39586C40.1892 1.23878 39.2512 0.300781 38.0942 0.300781Z" fill="#363735"/>
<path d="M31.3812 38.2781H10.4819L11.4557 35.6371C11.603 35.2412 11.8678 34.8998 12.2145 34.6585C12.5613 34.4172 12.9735 34.2876 13.3959 34.2871H28.4673C28.8897 34.2876 29.3019 34.4172 29.6486 34.6585C29.9954 34.8998 30.2601 35.2412 30.4074 35.6371L31.3812 38.2781Z" fill="#363735"/>
<path d="M27.508 38.2781H31.3662L30.3924 35.6371C30.246 35.2436 29.9835 34.9037 29.6396 34.6627C29.2958 34.4216 28.8869 34.2906 28.467 34.2871H25.6785C26.6792 35.4009 27.3173 36.7929 27.508 38.2781Z" fill="#1B1B1B"/>
<path d="M40.1892 3.7168H0.810547V23.8193H40.1892V3.7168Z" fill="#D8D8D8"/>
<path d="M22.8457 1.70996H18.1539C17.938 1.70996 17.7629 1.88501 17.7629 2.10095C17.7629 2.31688 17.938 2.49193 18.1539 2.49193H22.8457C23.0617 2.49193 23.2367 2.31688 23.2367 2.10095C23.2367 1.88501 23.0617 1.70996 22.8457 1.70996Z" fill="#787878"/>
<path d="M20.5 28.2968C21.4004 28.2968 22.1303 27.5669 22.1303 26.6665C22.1303 25.7661 21.4004 25.0361 20.5 25.0361C19.5996 25.0361 18.8696 25.7661 18.8696 26.6665C18.8696 27.5669 19.5996 28.2968 20.5 28.2968Z" fill="#787878"/>
<path d="M24.4023 29.5586H16.5974V34.2873H24.4023V29.5586Z" fill="#363735"/>
<path d="M24.4023 29.5586H16.5974V30.7315H24.4023V29.5586Z" fill="#1B1B1B"/>
<path d="M33.9631 29.6244H38.0869C38.6432 29.6244 39.1769 29.4039 39.571 29.0112C39.965 28.6185 40.1874 28.0857 40.1894 27.5293V23.8408H35.232C35.0166 25.8084 34.5912 27.7473 33.9631 29.6244Z" fill="#1B1B1B"/>
<path d="M38.0868 0.300781H33.8376C34.2381 1.37875 34.5442 2.48949 34.7524 3.62045H40.1893V2.40324C40.1873 1.84623 39.9652 1.31259 39.5713 0.918725C39.1775 0.524858 38.6438 0.302725 38.0868 0.300781Z" fill="#1B1B1B"/>
<path d="M35.232 23.8185H40.1893V3.62012H34.7524C35.8674 10.2963 36.0289 17.0969 35.232 23.8185Z" fill="#C3C3C4"/>
</svg>
