<svg width="24" height="40" viewBox="0 0 24 40" fill="none" xmlns="http://www.w3.org/2000/svg">
<path d="M20.1726 0.885742H3.82764C2.93293 0.887648 2.0754 1.24392 1.44274 1.87658C0.810079 2.50924 0.45381 3.36676 0.451904 4.26148V35.7395C0.45381 36.6342 0.810079 37.4918 1.44274 38.1244C2.0754 38.7571 2.93293 39.1133 3.82764 39.1152H20.1726C21.0673 39.1133 21.9248 38.7571 22.5575 38.1244C23.1901 37.4918 23.5464 36.6342 23.5483 35.7395V4.26148C23.5464 3.36676 23.1901 2.50924 22.5575 1.87658C21.9248 1.24392 21.0673 0.887648 20.1726 0.885742ZM22.1057 35.7395C22.1057 35.9934 22.0557 36.2447 21.9585 36.4793C21.8614 36.7138 21.719 36.9269 21.5395 37.1064C21.36 37.2859 21.1469 37.4283 20.9123 37.5255C20.6778 37.6226 20.4264 37.6726 20.1726 37.6726H3.82764C3.31495 37.6726 2.82325 37.469 2.46072 37.1064C2.09819 36.7439 1.89453 36.2522 1.89453 35.7395V32.8543H22.0912L22.1057 35.7395ZM22.1057 31.4116H1.90895V6.50476H22.1057V31.4116ZM22.1057 5.08377H1.90895V4.26148C1.90894 3.75128 2.11063 3.26175 2.47004 2.89964C2.82946 2.53752 3.31745 2.33217 3.82764 2.32837H20.1726C20.4264 2.32837 20.6778 2.37837 20.9123 2.47551C21.1469 2.57266 21.36 2.71505 21.5395 2.89456C21.719 3.07407 21.8614 3.28717 21.9585 3.52171C22.0557 3.75625 22.1057 4.00762 22.1057 4.26148V5.08377Z" fill="#CBCBCB"/>
</svg>
