<svg width="37" height="45" viewBox="0 0 37 45" fill="none" xmlns="http://www.w3.org/2000/svg">
<path d="M3.72998 0.849609V7.52961H4.72998C4.72998 7.52961 6.96998 3.52961 10.83 3.52961H18V39.3496C17.9559 40.2489 17.5599 41.0947 16.8976 41.7046C16.2354 42.3145 15.3598 42.6396 14.46 42.6096H12.37V44.1496H27.37V42.6096H25.32C24.8568 42.6216 24.3959 42.5408 23.9644 42.3718C23.533 42.2028 23.1397 41.9491 22.8079 41.6256C22.4761 41.3022 22.2124 40.9156 22.0325 40.4886C21.8525 40.0617 21.7598 39.603 21.76 39.1396V3.52961H28.93C32.7 3.52961 34.93 7.32961 35.02 7.52961H36.02V0.849609H3.72998Z" fill="#C3C3C4"/>
<path d="M7.47998 17.2294L5.84998 14.4194L4.22998 11.6094L2.60998 14.4194L0.97998 17.2294H3.22998V38.5294H0.97998L2.60998 41.3394L3.22998 42.4194V42.5394H3.29998L4.22998 44.1494L5.15998 42.5394H5.22998V42.4194L5.84998 41.3394L7.47998 38.5294H5.22998V17.2294H7.47998Z" fill="#C3C3C4"/>
<path d="M3.72998 0.849609V7.52961H4.72998C4.72998 7.52961 6.96998 3.52961 10.83 3.52961H18V39.3496C17.9559 40.2489 17.5599 41.0947 16.8976 41.7046C16.2354 42.3145 15.3598 42.6396 14.46 42.6096H12.37V44.1496H27.37V42.6096H25.32C24.8568 42.6216 24.3959 42.5408 23.9644 42.3718C23.533 42.2028 23.1397 41.9491 22.8079 41.6256C22.4761 41.3022 22.2124 40.9156 22.0325 40.4886C21.8525 40.0617 21.7598 39.603 21.76 39.1396V3.52961H28.93C32.7 3.52961 34.93 7.32961 35.02 7.52961H36.02V0.849609H3.72998Z" fill="#363735"/>
<path d="M7.47998 17.2294L5.84998 14.4194L4.22998 11.6094L2.60998 14.4194L0.97998 17.2294H3.22998V38.5294H0.97998L2.60998 41.3394L3.22998 42.4194V42.5394H3.29998L4.22998 44.1494L5.15998 42.5394H5.22998V42.4194L5.84998 41.3394L7.47998 38.5294H5.22998V17.2294H7.47998Z" fill="#607F52"/>
</svg>
