<svg width="61" height="61" viewBox="0 0 61 61" fill="none" xmlns="http://www.w3.org/2000/svg">
<path d="M28.48 30.0013C23.13 32.7213 17.78 34.3613 12.48 33.9113C12.2617 33.8912 12.059 33.7894 11.9125 33.6262C11.766 33.463 11.6866 33.2506 11.69 33.0313V16.3513C11.6877 16.2191 11.7187 16.0885 11.78 15.9713C11.843 15.8371 11.9397 15.7214 12.0606 15.6356C12.1815 15.5497 12.3225 15.4966 12.47 15.4813C13.214 15.4017 13.9617 15.3617 14.71 15.3613C19.5823 15.5152 24.3378 16.8907 28.54 19.3613C28.2456 19.4906 27.9698 19.6588 27.72 19.8613C23.7582 17.5812 19.2896 16.3266 14.72 16.2113C14.11 16.2113 13.5 16.2113 12.9 16.2913H12.84L13 16.3613C17.66 18.9913 22.31 20.6613 27 20.7313C26.6782 21.2509 26.5085 21.8502 26.51 22.4613V26.9413C26.5098 27.5867 26.6955 28.2185 27.0448 28.7611C27.3942 29.3038 27.8924 29.7343 28.48 30.0013V30.0013Z" fill="#C44D45"/>
<path d="M48.58 15.4813C47.8327 15.4015 47.0816 15.3614 46.33 15.3613C41.4707 15.5176 36.7287 16.8931 32.54 19.3613C32.8466 19.4694 33.1312 19.6321 33.38 19.8413C37.3295 17.5789 41.7799 16.3349 46.33 16.2213C46.97 16.2213 47.6 16.2213 48.22 16.3013L48.06 16.3713C43.43 18.9813 38.81 20.6613 34.18 20.7413C34.5018 21.2609 34.6715 21.8602 34.67 22.4713V26.9513C34.6543 27.6115 34.445 28.2525 34.0681 28.7948C33.6912 29.337 33.1633 29.7566 32.55 30.0013C37.9 32.6913 43.23 34.3313 48.55 33.8813C48.7683 33.8612 48.971 33.7594 49.1175 33.5962C49.264 33.433 49.3435 33.2206 49.34 33.0013V16.3513C49.3396 16.139 49.2624 15.934 49.1227 15.7742C48.9831 15.6143 48.7903 15.5103 48.58 15.4813Z" fill="#C44D45"/>
<path d="M28.48 30.0009C27.21 30.6409 25.95 31.2309 24.68 31.7309C24.2906 31.8266 23.9067 31.9435 23.53 32.0809C23.97 26.7709 20.33 19.1809 22.53 20.1909C23.9838 20.5026 25.4636 20.6767 26.95 20.7109C26.6282 21.2305 26.4585 21.8298 26.46 22.4409V26.9209C26.4602 27.5752 26.6515 28.2152 27.0104 28.7624C27.3692 29.3095 27.88 29.74 28.48 30.0009V30.0009Z" fill="#AA4E45"/>
<path d="M37.78 32.2802C35.9905 31.6306 34.2438 30.8691 32.55 30.0002C33.1726 29.7515 33.707 29.3227 34.0846 28.7687C34.4623 28.2147 34.6661 27.5606 34.67 26.8902V22.4302C34.6715 21.819 34.5018 21.2197 34.18 20.7002C35.6644 20.6684 37.1418 20.4875 38.59 20.1602C38.29 21.5402 34.58 28.0602 37.78 32.2802Z" fill="#AA4E45"/>
<path d="M34.06 22.7212V26.6213C34.0443 27.4065 33.7213 28.1542 33.1604 28.7039C32.5995 29.2536 31.8454 29.5614 31.06 29.5612H30C29.53 29.5611 29.067 29.4479 28.65 29.2312C28.1642 28.9866 27.7541 28.6146 27.4634 28.1548C27.1728 27.6951 27.0126 27.165 27 26.6213V22.7212C27.0157 21.936 27.3387 21.1883 27.8996 20.6386C28.4605 20.0889 29.2146 19.7811 30 19.7813H31.13C31.9032 19.7991 32.6396 20.1149 33.1855 20.6627C33.7315 21.2105 34.0447 21.948 34.06 22.7212V22.7212Z" fill="#C44D45"/>
<path d="M32.53 30.7812C31.1807 30.9811 29.8093 30.9811 28.46 30.7812C26.7111 31.6742 24.9075 32.4557 23.06 33.1212L16.69 50.5813L19.28 48.4013L21.86 46.2213L22.44 49.5512L23 52.8813L30.72 31.6612L38.45 52.8813L39 49.5512L39.58 46.2213L42.2 48.4013L44.79 50.5813L38.5 33.3012C36.4501 32.611 34.4545 31.7686 32.53 30.7812V30.7812Z" fill="#C44D45"/>
<path d="M28.63 29.2312C28.1479 28.9839 27.7419 28.6107 27.4549 28.1512C27.1679 27.6916 27.0107 27.1629 27 26.6213V22.7212C27.0157 21.936 27.3387 21.1883 27.8996 20.6386C28.4605 20.0889 29.2146 19.7811 30 19.7813H30.61C29.3 22.5213 27.1 26.2312 28.63 29.2312Z" fill="#AA4E45"/>
</svg>
