<?xml version="1.0" encoding="UTF-8"?>
<svg width="33px" height="32px" viewBox="0 0 33 32" version="1.1" xmlns="http://www.w3.org/2000/svg" xmlns:xlink="http://www.w3.org/1999/xlink">
    <!-- Generator: sketchtool 60 (101010) - https://sketch.com -->
    <title>CAD296EA-D8E9-4950-BAE9-430B34066689</title>
    <desc>Created with sketchtool.</desc>
    <g id="Asset-Artboard-Page" stroke="none" stroke-width="1" fill="none" fill-rule="evenodd" fill-opacity="0.3">
        <g id="icon-icons/done" transform="translate(0.741731, 0.000000)" fill="#FFFFFF" stroke="#FFFFFF">
            <path d="M22.3157019,11.022533 L22.3162429,11.0230545 C22.6643344,11.3590663 22.8609383,11.8221057 22.8609383,12.3059152 C22.8609383,12.7897247 22.6643344,13.2527642 22.3346896,13.5700068 L15.4239575,20.9809265 C14.7000259,21.6776373 13.5548964,21.6776373 12.80186,20.9504514 L9.04711958,16.6688589 C8.69756741,16.3329774 8.5,15.8691433 8.5,15.3843721 C8.5,14.8996009 8.69756741,14.4357668 9.04714142,14.0998644 C9.77077913,13.4046117 10.9142218,13.4046117 11.6886581,14.1567338 C11.7533473,14.2413451 11.8670263,14.389663 12.0137222,14.5804247 C12.2582042,14.8983461 12.5038014,15.2162439 12.7344879,15.5127888 C12.7485593,15.5308755 12.7485593,15.5308755 12.7626324,15.5489571 C13.2990895,16.2381373 13.6837636,16.7188281 13.761289,16.7964729 C13.9651961,16.99302 14.28806,16.99302 14.4854104,16.8029102 C14.5893672,16.6989533 15.5711416,15.6180308 17.0776842,13.9511727 C17.0830188,13.9452704 17.0830188,13.9452704 17.0883534,13.9393681 C17.6599805,13.3069031 18.2717988,12.6292357 18.8831782,11.9515646 C19.2295948,11.5675453 19.2295948,11.5675453 19.4740345,11.2964786 C19.6573305,11.0931854 19.6573305,11.0931854 19.7227092,11.022533 C20.4466408,10.3258223 21.5917703,10.3258223 22.3157019,11.022533 Z" id="checked-hover-2"></path>
        </g>
    </g>
</svg>