<svg width="61" height="61" viewBox="0 0 61 61" fill="none" xmlns="http://www.w3.org/2000/svg">
<path d="M52.53 45.1304H8.26001V41.9004H52.53V45.1304Z" fill="#363735"/>
<path d="M56.74 58.7699H4.26001V45.1299H56.74V58.7699Z" fill="#474747"/>
<path opacity="0.38" d="M14 58.7699H4.26001V45.1299H28.18C26.42 49.2599 20.34 56.6299 14 58.7699Z" fill="#787878"/>
<path d="M34.3399 41.8999H26.6399L28.9299 26.3099L29.7699 25.8699L30.1499 25.6699H30.8299L32.0499 26.3099L34.3399 41.8999Z" fill="#363735"/>
<path d="M30.83 25.6699C28.53 28.9999 30.57 38.7899 28.2 45.1299H8.26001V41.8999H26.64L28.93 26.3099L30.15 25.6699H30.83Z" fill="#474747"/>
<path d="M38.48 18.0007C38.2742 18.2113 38.123 18.469 38.0394 18.7513C37.9557 19.0336 37.9422 19.332 38 19.6207L39.15 26.3907C39.1903 26.6179 39.1658 26.8518 39.0795 27.0658C38.9931 27.2798 38.8484 27.4651 38.6617 27.6007C38.475 27.7363 38.2539 27.8166 38.0237 27.8325C37.7936 27.8485 37.5636 27.7993 37.36 27.6907L34.2 26.0007L31.33 24.4907L31.23 24.4407C30.966 24.3031 30.6727 24.2313 30.375 24.2313C30.0773 24.2313 29.784 24.3031 29.52 24.4407L29.42 24.4907L26.53 26.0007L23.43 27.6207C23.2264 27.7293 22.9964 27.7785 22.7662 27.7625C22.536 27.7466 22.315 27.6663 22.1283 27.5307C21.9416 27.3951 21.7968 27.2098 21.7105 26.9958C21.6241 26.7818 21.5997 26.5479 21.64 26.3207L22.81 19.5607C22.8518 19.2781 22.8265 18.9897 22.7362 18.7186C22.6459 18.4476 22.493 18.2017 22.29 18.0007L17.37 13.1907C17.2049 13.0301 17.0882 12.8263 17.0333 12.6025C16.9783 12.3788 16.9874 12.1441 17.0593 11.9253C17.1312 11.7064 17.2631 11.5121 17.44 11.3646C17.617 11.217 17.8318 11.1222 18.06 11.0907L24.87 10.0907C25.1642 10.0493 25.4437 9.93654 25.6843 9.76223C25.9248 9.58792 26.119 9.35737 26.25 9.09072L29.31 2.94072C29.4111 2.73384 29.5683 2.55951 29.7637 2.43757C29.959 2.31563 30.1847 2.25098 30.415 2.25098C30.6453 2.25098 30.8709 2.31563 31.0663 2.43757C31.2616 2.55951 31.4188 2.73384 31.52 2.94072L34.52 9.11072C34.6569 9.37679 34.8554 9.60634 35.0989 9.78027C35.3424 9.9542 35.6239 10.0675 35.92 10.1107L42.71 11.1107C42.9374 11.1437 43.151 11.2397 43.3266 11.3879C43.5022 11.5361 43.6328 11.7305 43.7036 11.9491C43.7744 12.1677 43.7825 12.4017 43.7271 12.6247C43.6717 12.8477 43.5549 13.0507 43.39 13.2107L38.48 18.0007Z" fill="#EDB463"/>
<path d="M31.18 2.51025C29.83 5.51025 30.51 7.85025 26.64 10.4002C24.78 11.6302 22.16 14.2102 23.58 15.9202C27.93 21.1802 22.07 23.9202 22.37 27.7102C22.1171 27.6 21.9086 27.4079 21.7781 27.1649C21.6475 26.9219 21.6024 26.642 21.65 26.3702L22.82 19.6002C22.8628 19.3115 22.8381 19.0168 22.7479 18.7392C22.6577 18.4616 22.5044 18.2087 22.3 18.0002L17.38 13.1902C17.2151 13.0302 17.0984 12.8272 17.0429 12.6042C16.9875 12.3813 16.9956 12.1472 17.0664 11.9286C17.1372 11.71 17.2678 11.5156 17.4434 11.3674C17.619 11.2192 17.8326 11.1232 18.06 11.0902L24.87 10.0902C25.1657 10.0496 25.4469 9.93715 25.6892 9.76286C25.9315 9.58856 26.1275 9.35764 26.26 9.09025L29.26 2.93025C29.3395 2.757 29.4581 2.60459 29.6065 2.48503C29.7549 2.36547 29.9291 2.28203 30.1153 2.2413C30.3015 2.20058 30.4946 2.20367 30.6793 2.25034C30.8641 2.29702 31.0355 2.38599 31.18 2.51025Z" fill="#EAC89D"/>
<path d="M16.5901 21.4704L17.6401 20.9204C17.6618 20.9084 17.6865 20.9029 17.7113 20.9046C17.7361 20.9062 17.7599 20.9149 17.7798 20.9296C17.7998 20.9444 17.8152 20.9645 17.8241 20.9877C17.833 21.0108 17.8351 21.0361 17.8301 21.0604L17.6301 22.2204C17.6204 22.2389 17.6154 22.2595 17.6154 22.2804C17.6154 22.3013 17.6204 22.3219 17.6301 22.3404L18.4701 23.1604C18.49 23.1767 18.5046 23.1986 18.5121 23.2232C18.5196 23.2479 18.5196 23.2742 18.5121 23.2988C18.5046 23.3235 18.4899 23.3453 18.47 23.3616C18.4501 23.3779 18.4257 23.3879 18.4001 23.3904L17.2301 23.5604C17.2087 23.562 17.1881 23.5694 17.1705 23.5817C17.1529 23.594 17.139 23.6108 17.1301 23.6304L16.6101 24.6904C16.6002 24.7141 16.5835 24.7343 16.5622 24.7486C16.5408 24.7628 16.5157 24.7704 16.4901 24.7704C16.4644 24.7704 16.4393 24.7628 16.418 24.7486C16.3966 24.7343 16.3799 24.7141 16.3701 24.6904L15.8501 23.6304C15.8412 23.6108 15.8272 23.594 15.8096 23.5817C15.7921 23.5694 15.7715 23.562 15.7501 23.5604L14.5901 23.3904C14.5657 23.3859 14.543 23.3751 14.5242 23.359C14.5054 23.3429 14.4912 23.3221 14.4831 23.2987C14.475 23.2753 14.4732 23.2502 14.4779 23.2259C14.4827 23.2016 14.4938 23.179 14.5101 23.1604L15.3601 22.3404C15.3706 22.3221 15.3762 22.3015 15.3762 22.2804C15.3762 22.2593 15.3706 22.2386 15.3601 22.2204L15.1601 21.0604C15.1576 21.0357 15.1618 21.0107 15.1722 20.9881C15.1825 20.9655 15.1987 20.9461 15.2191 20.9319C15.2395 20.9176 15.2633 20.909 15.288 20.907C15.3128 20.905 15.3377 20.9096 15.3601 20.9204L16.3601 21.4704C16.3711 21.4913 16.3877 21.5089 16.4079 21.5211C16.4282 21.5333 16.4514 21.5398 16.4751 21.5398C16.4987 21.5398 16.522 21.5333 16.5422 21.5211C16.5625 21.5089 16.579 21.4913 16.5901 21.4704Z" fill="#EDB463"/>
<path d="M41.6001 3.89031L42.6001 3.34031C42.6218 3.32835 42.6466 3.32286 42.6713 3.3245C42.6961 3.32614 42.7199 3.33484 42.7399 3.34956C42.7598 3.36429 42.7752 3.38442 42.7841 3.40759C42.793 3.43076 42.7951 3.45599 42.7901 3.48031L42.5901 4.64031C42.5745 4.67879 42.5745 4.72182 42.5901 4.76031L43.4301 5.58031C43.45 5.59663 43.4647 5.6185 43.4721 5.64314C43.4796 5.66779 43.4796 5.69411 43.4721 5.71875C43.4646 5.74339 43.45 5.76525 43.43 5.78155C43.4101 5.79785 43.3857 5.80786 43.3601 5.81031L42.2701 6.00031C42.2501 6.00264 42.2312 6.0104 42.2153 6.02274C42.1995 6.03508 42.1873 6.05153 42.1801 6.07031L41.6501 7.13031C41.6391 7.15125 41.6225 7.16877 41.6023 7.181C41.582 7.19322 41.5588 7.19969 41.5351 7.19969C41.5114 7.19969 41.4882 7.19322 41.4679 7.181C41.4477 7.16877 41.4311 7.15125 41.4201 7.13031L40.8901 6.07031C40.8901 6.07031 40.8901 6.01031 40.7901 6.00031L39.6301 5.83031C39.6045 5.82786 39.5801 5.81785 39.5602 5.80155C39.5402 5.78525 39.5256 5.76339 39.5181 5.73875C39.5106 5.71411 39.5106 5.68779 39.5181 5.66314C39.5255 5.6385 39.5402 5.61663 39.5601 5.60031L40.4001 4.78031C40.4157 4.74182 40.4157 4.69879 40.4001 4.66031L40.2001 3.50031C40.1951 3.47599 40.1972 3.45076 40.2061 3.42759C40.215 3.40442 40.2304 3.38429 40.2503 3.36956C40.2703 3.35484 40.2941 3.34614 40.3189 3.3445C40.3436 3.34286 40.3683 3.34835 40.3901 3.36031L41.3901 3.91031C41.4207 3.93529 41.4599 3.9472 41.4992 3.94346C41.5385 3.93971 41.5748 3.92062 41.6001 3.89031Z" fill="#EDB463"/>
<path d="M18.18 19.4699C18.539 19.4699 18.83 19.1789 18.83 18.8199C18.83 18.4609 18.539 18.1699 18.18 18.1699C17.821 18.1699 17.53 18.4609 17.53 18.8199C17.53 19.1789 17.821 19.4699 18.18 19.4699Z" fill="#EDB463"/>
<path d="M36.8399 30.6906C37.1989 30.6906 37.4899 30.3996 37.4899 30.0406C37.4899 29.6816 37.1989 29.3906 36.8399 29.3906C36.481 29.3906 36.1899 29.6816 36.1899 30.0406C36.1899 30.3996 36.481 30.6906 36.8399 30.6906Z" fill="#EDB463"/>
<path d="M19.2201 20.9099C19.4355 20.9099 19.6101 20.7353 19.6101 20.5199C19.6101 20.3045 19.4355 20.1299 19.2201 20.1299C19.0047 20.1299 18.8301 20.3045 18.8301 20.5199C18.8301 20.7353 19.0047 20.9099 19.2201 20.9099Z" fill="#EDB463"/>
<path d="M36.84 32.3298C37.0553 32.3298 37.2299 32.1552 37.2299 31.9398C37.2299 31.7244 37.0553 31.5498 36.84 31.5498C36.6246 31.5498 36.45 31.7244 36.45 31.9398C36.45 32.1552 36.6246 32.3298 36.84 32.3298Z" fill="#EDB463"/>
<path d="M38.89 29.78C39.1054 29.78 39.28 29.6054 39.28 29.39C39.28 29.1746 39.1054 29 38.89 29C38.6746 29 38.5 29.1746 38.5 29.39C38.5 29.6054 38.6746 29.78 38.89 29.78Z" fill="#EDB463"/>
<path d="M43.5499 7.96066C43.7653 7.96066 43.9399 7.78606 43.9399 7.57066C43.9399 7.35527 43.7653 7.18066 43.5499 7.18066C43.3345 7.18066 43.1599 7.35527 43.1599 7.57066C43.1599 7.78606 43.3345 7.96066 43.5499 7.96066Z" fill="#EDB463"/>
<path d="M42.4901 9.11984C42.7055 9.11984 42.8801 8.94523 42.8801 8.72984C42.8801 8.51445 42.7055 8.33984 42.4901 8.33984C42.2747 8.33984 42.1001 8.51445 42.1001 8.72984C42.1001 8.94523 42.2747 9.11984 42.4901 9.11984Z" fill="#EDB463"/>
<path d="M39.5201 8.7302C39.7355 8.7302 39.9101 8.55559 39.9101 8.3402C39.9101 8.1248 39.7355 7.9502 39.5201 7.9502C39.3047 7.9502 39.1301 8.1248 39.1301 8.3402C39.1301 8.55559 39.3047 8.7302 39.5201 8.7302Z" fill="#EDB463"/>
</svg>
