<?xml version="1.0" encoding="UTF-8"?>
<svg width="139px" height="42px" viewBox="0 0 139 42" version="1.1" xmlns="http://www.w3.org/2000/svg" xmlns:xlink="http://www.w3.org/1999/xlink">
    <!-- Generator: sketchtool 60.1 (101010) - https://sketch.com -->
    <title>EA84D207-02DA-42EA-852B-39C93490C547</title>
    <desc>Created with sketchtool.</desc>
    <defs>
        <linearGradient x1="0%" y1="50%" x2="50%" y2="50%" id="linearGradient-1">
            <stop stop-color="#FF844D" offset="0%"></stop>
            <stop stop-color="#FF5CC8" offset="100%"></stop>
            <stop stop-color="#FF5BCB" offset="100%"></stop>
        </linearGradient>
        <linearGradient x1="42.7637658%" y1="0%" x2="42.7637658%" y2="75.1209967%" id="linearGradient-2">
            <stop stop-color="#9444B7" offset="0%"></stop>
            <stop stop-color="#23C0EE" offset="100%"></stop>
        </linearGradient>
    </defs>
    <g id="App-Mockups" stroke="none" stroke-width="1" fill="none" fill-rule="evenodd">
        <g id="L---Login/register---1---Login-page" transform="translate(-570.000000, -173.000000)">
            <g id="content" transform="translate(480.000000, 173.000000)">
                <g id="logo+label" transform="translate(90.000000, 0.000000)">
                    <g id="logo-icons/logo">
                        <g id="shape">
                            <path d="M17.3333329,10.3999995 C11.6837317,10.3999995 7.08628911,14.9048257 6.93707158,20.5184115 L6.93333329,20.7999997 L6.93333329,20.7999997 C6.93333329,31.3302288 15.4697706,39.8666661 25.9999997,39.8666661 C27.3889094,39.8666661 28.7431334,39.7181583 30.0476587,39.4361557 C27.2623232,40.8211703 24.1221138,41.5999985 20.7999992,41.5999985 C9.31247686,41.5999985 3.23296933e-14,32.2875216 3.23296933e-14,20.7999992 C3.23296933e-14,9.31247686 9.31247686,0 20.7999992,0 C24.1221138,0 27.2623232,0.778828202 30.0480015,2.16385844 L29.5801291,2.06891701 C29.7370857,2.09873536 29.8933609,2.13047766 30.0489293,2.16411845 C36.781256,5.51205999 41.4425824,12.4004664 41.5960898,20.3926763 L41.5999997,20.7999999 C41.5999997,24.6291741 38.4958407,27.7333331 34.6666664,27.7333331 C30.8374922,27.7333331 27.7333331,24.6291741 27.7333331,20.7999999 L27.7333331,20.7999999 C27.7333325,15.0562379 23.0770941,10.3999995 17.3333329,10.3999995 Z" id="Combined-Shape" fill="url(#linearGradient-1)"></path>
                            <path d="M20.7999992,0 C24.1221138,0 27.2623232,0.778828202 30.0480015,2.16385844 L29.911,2.135 L30.0489293,2.16411845 C36.781256,5.51205999 41.4425824,12.4004664 41.5960898,20.3926763 L41.5999997,20.7999999 C41.5999997,24.6291741 38.4958407,27.7333331 34.6666664,27.7333331 C30.9172667,27.7333331 27.8629878,24.7571668 27.7373535,21.0383577 L27.7333331,20.7999999 C27.7333331,20.1781949 27.6787634,19.5691354 27.574152,18.977349 C27.6787569,18.3006986 27.7333315,17.6067221 27.7333315,16.8999991 C27.7333315,9.48097443 21.7190237,3.46666664 14.2999991,3.46666664 C10.8409777,3.46666664 7.68730899,4.77403663 5.30617012,6.92159936 C9.11412429,2.67356759 14.6448392,0 20.7999992,0 Z" id="Combined-Shape" fill="url(#linearGradient-2)"></path>
                        </g>
                    </g>
                    <path d="M61.0390603,27.5999985 L61.0390603,22.7389635 L62.3898415,22.7389635 C64.0309221,22.7389635 65.2957984,22.3775703 66.1844702,21.6547838 C67.0731421,20.9319974 67.517478,19.8922514 67.517478,18.5355457 C67.517478,17.2440093 67.1131323,16.2664702 66.3044409,15.6029286 C65.4957496,14.939387 64.2797502,14.6076161 62.656443,14.6076161 L62.656443,14.6076161 L58.9151346,14.6076161 L58.9151346,27.5999985 L61.0390603,27.5999985 Z M62.1676735,20.9527331 L61.0390603,20.9527331 L61.0390603,16.3849598 L62.5142555,16.3849598 C63.4799456,16.3849598 64.1908831,16.5686187 64.6470679,16.9359364 C65.1032528,17.3032541 65.3313453,17.8601551 65.3313453,18.6066394 C65.3313453,19.4123686 65.0765927,20.0048165 64.5670875,20.3839831 C64.0575823,20.7631498 63.2577776,20.9527331 62.1676735,20.9527331 L62.1676735,20.9527331 Z M71.9786106,27.5999985 L71.9786106,13.7722646 L69.8902318,13.7722646 L69.8902318,27.5999985 L71.9786106,27.5999985 Z M77.3461886,27.7777328 C78.0985974,27.7777328 78.7147432,27.6696111 79.194626,27.4533676 C79.6745088,27.2371241 80.1514294,26.8298162 80.6253877,26.2314438 L80.6253877,26.2314438 L80.6964814,26.2314438 L81.1141572,27.5999985 L82.6071259,27.5999985 L82.6071259,20.9793932 C82.6071259,19.8122709 82.2886851,18.9561837 81.6518036,18.4111316 C81.0149222,17.8660796 80.0714489,17.5935535 78.8213838,17.5935535 C78.2585583,17.5935535 77.660186,17.6661284 77.0262667,17.8112781 C76.3923475,17.9564279 75.8087863,18.168228 75.2755832,18.4466785 L75.2755832,18.4466785 L75.9509738,19.9396472 C76.3775363,19.7382149 76.8218722,19.5634428 77.2839815,19.4153308 C77.7460909,19.2672188 78.2289359,19.1931628 78.7325166,19.1931628 C79.3486625,19.1931628 79.8033662,19.3486804 80.0966279,19.6597156 C80.3898896,19.9707507 80.5365205,20.4402657 80.5365205,21.0682604 L80.5365205,21.0682604 L80.5365205,21.5925768 L78.8391573,21.6458971 C77.2987927,21.693293 76.1524061,21.9747057 75.3999972,22.4901354 C74.6475884,23.005565 74.271384,23.7698228 74.271384,24.7829087 C74.271384,25.7367498 74.5424289,26.4743475 75.0845187,26.9957016 C75.6266086,27.5170558 76.3804985,27.7777328 77.3461886,27.7777328 Z M78.0038057,26.1781235 C77.4824516,26.1781235 77.091436,26.0581528 76.8307589,25.8182114 C76.5700818,25.57827 76.4397433,25.2390936 76.4397433,24.8006822 C76.4397433,24.1963853 76.6633924,23.747606 77.1106905,23.4543443 C77.5579887,23.1610826 78.2733695,22.9966783 79.256833,22.9611315 L79.256833,22.9611315 L80.518747,22.9078111 L80.518747,23.7609361 C80.518747,24.5251939 80.2891735,25.1191229 79.8300264,25.5427232 C79.3708793,25.9663234 78.762139,26.1781235 78.0038057,26.1781235 Z M85.7619109,31.9722639 C87.5451791,31.9722639 88.8189421,30.9502913 89.5831998,28.9063461 L89.5831998,28.9063461 L93.7866177,17.7712879 L91.5293912,17.7712879 C90.166761,21.7229154 89.4143522,23.9312649 89.2721647,24.3963365 C89.1299772,24.8614081 89.0322233,25.256867 88.978903,25.5827134 L88.978903,25.5827134 L88.9078092,25.5827134 C88.8070931,24.8836249 88.6056608,24.1371405 88.3035124,23.3432603 L88.3035124,23.3432603 L86.3040007,17.7712879 L84.0290008,17.7712879 L87.9747038,27.5999985 L87.6103483,28.5242172 C87.2015593,29.6913395 86.4935841,30.2749007 85.4864226,30.2749007 C85.0835581,30.2749007 84.7251271,30.2393538 84.4111297,30.1682601 L84.4111297,30.1682601 L84.4111297,31.8211897 C84.8495412,31.9219059 85.2998016,31.9722639 85.7619109,31.9722639 Z M98.4432581,27.7777328 C98.8342737,27.7777328 99.2119593,27.7436671 99.5763147,27.6755356 C99.9406702,27.6074041 100.238375,27.5229802 100.46943,27.4222641 L100.46943,27.4222641 L100.46943,25.8493149 C99.9599247,26.0092759 99.4504195,26.0892563 98.9409143,26.0892563 C98.5321253,26.0892563 98.2018356,25.9692856 97.9500452,25.7293442 C97.6982549,25.4894028 97.5723597,25.1176418 97.5723597,24.6140611 L97.5723597,24.6140611 L97.5723597,19.3531238 L100.371676,19.3531238 L100.371676,17.7712879 L97.5723597,17.7712879 L97.5723597,15.5851552 L96.2837855,15.5851552 L95.5728481,17.6646473 L94.1331997,18.4289051 L94.1331997,19.3531238 L95.4750942,19.3531238 L95.4750942,24.649608 C95.4750942,26.7350245 96.4644821,27.7777328 98.4432581,27.7777328 Z M104.521774,27.5999985 L104.521774,22.7211901 C104.521774,21.4888984 104.727649,20.6105944 105.1394,20.086278 C105.551152,19.5619617 106.195439,19.2998035 107.072262,19.2998035 C107.735803,19.2998035 108.220129,19.4864246 108.52524,19.8596667 C108.830351,20.2329089 108.982906,20.7986966 108.982906,21.5570299 L108.982906,21.5570299 L108.982906,27.5999985 L111.080172,27.5999985 L111.080172,21.1926745 C111.080172,18.7932605 109.889351,17.5935535 107.507711,17.5935535 C106.83232,17.5935535 106.241354,17.7238921 105.734811,17.9845691 C105.228268,18.2452462 104.832809,18.6125639 104.548434,19.0865222 L104.548434,19.0865222 L104.415133,19.0865222 C104.486227,18.4466785 104.521774,17.8453439 104.521774,17.2825184 L104.521774,17.2825184 L104.521774,13.7722646 L102.433395,13.7722646 L102.433395,27.5999985 L104.521774,27.5999985 Z M118.278414,27.7777328 C118.94788,27.7777328 119.54329,27.7273748 120.064644,27.6266586 C120.585998,27.5259425 121.101428,27.3541326 121.610933,27.111229 L121.610933,27.111229 L121.610933,25.4138657 C121.036259,25.6686183 120.498612,25.8507961 119.997994,25.9603989 C119.497375,26.0700018 118.956766,26.1248032 118.376168,26.1248032 C117.49342,26.1248032 116.809143,25.8685695 116.323336,25.3561021 C115.837528,24.8436346 115.579813,24.1104804 115.550191,23.1566393 L115.550191,23.1566393 L122.099703,23.1566393 L122.099703,22.028026 C122.099703,20.6476224 121.723498,19.5634428 120.971089,18.7754871 C120.21868,17.9875314 119.193746,17.5935535 117.896285,17.5935535 C116.498108,17.5935535 115.399117,18.0527006 114.599312,18.9709949 C113.799508,19.8892891 113.399605,21.1512031 113.399605,22.7567369 C113.399605,24.3207994 113.830611,25.5486476 114.692623,26.4402817 C115.554634,27.3319158 116.749898,27.7777328 118.278414,27.7777328 Z M120.046871,21.6458971 L115.585738,21.6458971 C115.662756,20.840168 115.901216,20.2269844 116.301119,19.8063464 C116.701021,19.3857084 117.232743,19.1753894 117.896285,19.1753894 C118.559826,19.1753894 119.081181,19.3842273 119.460347,19.8019031 C119.839514,20.2195788 120.035022,20.8342435 120.046871,21.6458971 L120.046871,21.6458971 Z M126.560835,27.5999985 L126.560835,22.7034166 C126.560835,21.482974 126.748937,20.6105944 127.125142,20.086278 C127.501346,19.5619617 128.092313,19.2998035 128.898042,19.2998035 C129.502339,19.2998035 129.946675,19.4849434 130.23105,19.8552234 C130.515425,20.2255033 130.657612,20.7868477 130.657612,21.5392565 L130.657612,21.5392565 L130.657612,27.5999985 L132.754878,27.5999985 L132.754878,22.3923815 C132.754878,21.3437487 132.94298,20.5661608 133.319185,20.0596179 C133.695389,19.5530749 134.289318,19.2998035 135.100972,19.2998035 C135.705268,19.2998035 136.151086,19.4849434 136.438423,19.8552234 C136.72576,20.2255033 136.869429,20.7868477 136.869429,21.5392565 L136.869429,21.5392565 L136.869429,27.5999985 L138.957807,27.5999985 L138.957807,21.1926745 C138.957807,19.9781563 138.689725,19.0746733 138.153559,18.4822254 C137.617394,17.8897775 136.762788,17.5935535 135.589741,17.5935535 C134.908426,17.5935535 134.304129,17.7298165 133.776851,18.0023426 C133.249572,18.2748686 132.840783,18.6540353 132.550483,19.1398425 L132.550483,19.1398425 L132.408296,19.1398425 C131.916564,18.1089832 130.915327,17.5935535 129.404585,17.5935535 C128.782515,17.5935535 128.212284,17.7209298 127.693892,17.9756824 C127.1755,18.230435 126.780041,18.5918282 126.507515,19.0598621 L126.507515,19.0598621 L126.400874,19.0598621 L126.107613,17.7712879 L124.472456,17.7712879 L124.472456,27.5999985 L126.560835,27.5999985 Z" id="Playthem" fill="#323232" fill-rule="nonzero"></path>
                </g>
            </g>
        </g>
    </g>
</svg>