<?xml version="1.0" encoding="UTF-8"?>
<svg width="33px" height="32px" viewBox="0 0 33 32" version="1.1" xmlns="http://www.w3.org/2000/svg" xmlns:xlink="http://www.w3.org/1999/xlink">
    <!-- Generator: sketchtool 60 (101010) - https://sketch.com -->
    <title>73C3461F-8C36-43D9-97BA-8EA3EA2AF8FF</title>
    <desc>Created with sketchtool.</desc>
    <g id="Asset-Artboard-Page" stroke="none" stroke-width="1" fill="none" fill-rule="evenodd" fill-opacity="0.3">
        <g id="icon-icons/close" transform="translate(0.592124, 0.000000)" fill="#4E91D9" stroke="#4E91D9">
            <path d="M17.5,14.5 L22,14.5 C22.8284271,14.5 23.5,15.1715729 23.5,16 C23.5,16.8284271 22.8284271,17.5 22,17.5 L17.5,17.5 L17.5,22 C17.5,22.8284271 16.8284271,23.5 16,23.5 C15.1715729,23.5 14.5,22.8284271 14.5,22 L14.5,17.4991 L10,17.5 C9.17157288,17.5 8.5,16.8284271 8.5,16 C8.5,15.1715729 9.17157288,14.5 9.9999,14.5 L14.5,14.4991 L14.5,10 C14.5,9.17157288 15.1715729,8.5 16,8.5 C16.8284271,8.5 17.5,9.17157288 17.5,10 L17.5,14.5 Z" id="Combined-Shape" transform="translate(16.000000, 16.000000) rotate(-315.000000) translate(-16.000000, -16.000000) "></path>
        </g>
    </g>
</svg>