<svg width="25" height="24" viewBox="0 0 25 24" fill="none" xmlns="http://www.w3.org/2000/svg">
<path d="M3.125 6H5.20833H21.875" stroke="#787878" stroke-width="2" stroke-linecap="round" stroke-linejoin="round"/>
<path d="M8.33337 6V4C8.33337 3.46957 8.55287 2.96086 8.94357 2.58579C9.33427 2.21071 9.86417 2 10.4167 2H14.5834C15.1359 2 15.6658 2.21071 16.0565 2.58579C16.4472 2.96086 16.6667 3.46957 16.6667 4V6M19.7917 6V20C19.7917 20.5304 19.5722 21.0391 19.1815 21.4142C18.7908 21.7893 18.2609 22 17.7084 22H7.29171C6.73917 22 6.20927 21.7893 5.81857 21.4142C5.42787 21.0391 5.20837 20.5304 5.20837 20V6H19.7917Z" stroke="#787878" stroke-width="2" stroke-linecap="round" stroke-linejoin="round"/>
<path d="M10.4166 11V17" stroke="#787878" stroke-width="2" stroke-linecap="round" stroke-linejoin="round"/>
<path d="M14.5834 11V17" stroke="#787878" stroke-width="2" stroke-linecap="round" stroke-linejoin="round"/>
</svg>
