<svg width="61" height="61" viewBox="0 0 61 61" fill="none" xmlns="http://www.w3.org/2000/svg">
<path d="M26.4299 27.1203V22.6403C26.4299 22.0103 26.6099 21.4103 26.9199 20.9103C22.2499 20.8503 17.5999 19.1703 12.9399 16.5403C12.8799 16.5103 12.8299 16.4903 12.7799 16.4803C13.4099 16.4203 14.0399 16.3903 14.6599 16.3903C18.7999 16.3903 22.9899 17.5703 27.6799 20.0403C27.9199 19.8403 28.1999 19.6703 28.4999 19.5403C24.1299 17.1803 19.5399 15.5703 14.6599 15.5703C13.9199 15.5703 13.1699 15.6103 12.4199 15.6803C11.9699 15.7303 11.6399 16.1103 11.6399 16.5603V33.2303C11.6399 33.6803 11.9799 34.0703 12.4299 34.1103C17.7799 34.5603 23.1299 32.9203 28.4799 30.2003C27.2799 29.7003 26.4299 28.5003 26.4299 27.1203Z" fill="#C3C3C4"/>
<path d="M48.5798 15.6901C47.8198 15.6201 47.0798 15.5801 46.3298 15.5801C41.4698 15.5801 36.8898 17.1801 32.5398 19.5301C32.8498 19.6401 33.1298 19.8101 33.3798 20.0101C38.0398 17.5601 42.2098 16.3901 46.3298 16.3901C46.9598 16.3901 47.5998 16.4201 48.2198 16.4801C48.1598 16.5001 48.1098 16.5101 48.0598 16.5401C43.4298 19.1501 38.7998 20.8301 34.1798 20.9101C34.4898 21.4101 34.6698 22.0101 34.6698 22.6401V27.1201C34.6698 28.5201 33.7898 29.7301 32.5598 30.2301C37.8998 32.9301 43.2398 34.5601 48.5698 34.1101C49.0198 34.0801 49.3698 33.6901 49.3698 33.2301V16.5701C49.3598 16.1201 49.0298 15.7401 48.5798 15.6901Z" fill="#C3C3C4"/>
<path d="M27.0398 22.9302V26.8302C27.0398 28.4502 28.3598 29.7702 29.9798 29.7702H31.1098C32.7298 29.7702 34.0498 28.4502 34.0498 26.8302V22.9302C34.0498 21.3102 32.7298 19.9902 31.1098 19.9902H29.9798C28.3698 19.9902 27.0398 21.3202 27.0398 22.9302Z" fill="#C3C3C4"/>
<path d="M32.5299 30.9907C31.2899 31.2007 29.9099 31.1607 28.4499 30.9707C26.6599 31.8907 24.8499 32.6807 23.0499 33.3107L16.6799 50.8007L19.2699 48.6207L21.8499 46.4407L22.4299 49.7807L23.0099 53.1107L30.7299 31.8907L38.4599 53.1107L39.0399 49.7807L39.6199 46.4407L42.1999 48.6207L44.7899 50.8007L38.4999 33.5107C36.5099 32.8507 34.5199 32.0007 32.5299 30.9907Z" fill="#C3C3C4"/>
</svg>
