<svg width="51" height="51" viewBox="0 0 51 51" fill="none" xmlns="http://www.w3.org/2000/svg">
<path d="M48.1294 22.4294C48.0182 22.6823 47.8969 22.9453 47.7857 23.2286L43.6619 33.194L38.8811 26.3346L41.2867 20.5273C41.3877 20.2542 41.4989 20.0012 41.5798 19.7686L48.1294 22.4294Z" fill="#607F52"/>
<path d="M34.9089 19.3639C34.818 21.1344 34.636 22.8948 34.3732 24.6552L28.2279 25.6669C28.0965 23.438 28.1371 21.2022 28.3492 18.9795L34.9089 19.3639Z" fill="#EDB463"/>
<path d="M20.0106 8.58972C20.0106 8.58972 20.7888 15.439 18.2114 16.046C15.634 16.6531 13.1577 10.1983 13.1577 10.1983L13.3194 5.73669C14.0472 5.99974 14.128 2.98484 14.9467 2.78249C15.7654 2.58015 17.322 5.24095 17.8577 4.67439L20.0106 8.58972Z" fill="#F5D4B0"/>
<path d="M24.6398 28.3992L22.8608 34.2671L22.3757 33.8422L17.8071 29.856L13.1577 10.1985C13.5767 10.8647 14.1866 11.3891 14.9078 11.7031C15.629 12.0172 16.4281 12.1063 17.2007 11.9588C17.9548 11.7447 18.6274 11.3093 19.1319 10.7088C19.6363 10.1082 19.9494 9.37019 20.0308 8.58984L24.6398 28.3992Z" fill="#EAEAEA"/>
<path d="M22.3454 33.8419L17.8071 29.8558L13.1577 10.1982C13.5767 10.8645 14.1866 11.3889 14.9078 11.7029C15.629 12.0169 16.4281 12.1061 17.2007 11.9586L22.3454 33.8419Z" fill="#607F52"/>
<path d="M14.1079 30.3614L14.0371 41.3081L7.09332 38.7383L0.0686595 21.782C0.0233475 21.6748 0 21.5596 0 21.4431C0 21.3267 0.0233475 21.2114 0.0686595 21.1042C0.160593 20.8908 0.330545 20.7207 0.543709 20.6287L7.86149 17.5936C8.07749 17.5059 8.31924 17.5066 8.53473 17.5955C8.75022 17.6845 8.92222 17.8545 9.01374 18.0691L9.72126 19.708L10.0548 20.5174L10.3883 21.3268L11.0352 22.9354L11.3688 23.7448L11.7124 24.5643L12.3795 26.1931L12.7535 26.9822L13.087 27.7916L14.0978 30.24L14.1079 30.3614Z" fill="#DF865F"/>
<path d="M10.3581 21.3277L6.31516 23.0173C6.20539 23.0588 6.08884 23.0794 5.9715 23.078C5.76992 23.0753 5.5754 23.0033 5.42051 22.8741C5.26562 22.745 5.15977 22.5665 5.12069 22.3685C5.08161 22.1705 5.11167 21.9651 5.20584 21.7867C5.30001 21.6083 5.45256 21.4677 5.63796 21.3884L9.68093 19.709L10.0145 20.5184L10.3581 21.3277Z" fill="#C44D45"/>
<path d="M11.7426 24.5846L9.29658 25.5963C9.18961 25.6352 9.07684 25.6558 8.96303 25.6571C8.74864 25.6768 8.53444 25.6172 8.36104 25.4895C8.18764 25.3617 8.06709 25.1747 8.02223 24.964C7.97737 24.7532 8.01133 24.5333 8.11767 24.3459C8.224 24.1585 8.39533 24.0166 8.59917 23.9473L11.0351 22.9355L11.3686 23.7449L11.7426 24.5846Z" fill="#C44D45"/>
<path d="M13.0466 27.8314L9.00359 29.5209C8.89822 29.5654 8.78434 29.5862 8.67005 29.5816C8.46813 29.5833 8.27195 29.5145 8.11517 29.3871C7.9584 29.2597 7.85083 29.0817 7.81092 28.8835C7.76366 28.6811 7.78949 28.4685 7.88384 28.2833C7.97818 28.0982 8.13496 27.9524 8.3264 27.8718L12.3694 26.1924L12.7535 26.9815L13.0466 27.8314Z" fill="#C44D45"/>
<path d="M50.9998 44.8391C50.9998 45.6491 50.8403 46.4511 50.5303 47.1993C50.2203 47.9475 49.766 48.6272 49.1934 49.1994C48.6207 49.7717 47.9409 50.2253 47.193 50.5343C46.445 50.8434 45.6435 51.0018 44.8343 51.0004H6.11273C4.52204 50.9359 3.01794 50.2581 1.91525 49.1087C0.812568 47.9593 0.196777 46.4276 0.196777 44.8341C0.196777 43.2406 0.812568 41.7088 1.91525 40.5594C3.01794 39.4101 4.52204 38.7322 6.11273 38.6677C6.70783 38.6701 7.29971 38.7552 7.87142 38.9206C7.90782 37.2195 8.41189 35.5614 9.32828 34.1283C10.2447 32.6953 11.5379 31.5427 13.0659 30.7973C14.594 30.0519 16.2977 29.7424 17.99 29.9029C19.6823 30.0634 21.2976 30.6877 22.6586 31.7071C23.6679 29.0375 25.6739 26.8647 28.2531 25.6472C30.8324 24.4297 33.7833 24.2627 36.4833 25.1815C39.1832 26.1003 41.421 28.033 42.7244 30.5717C44.0279 33.1105 44.2952 36.0568 43.4698 38.7891C43.9177 38.6887 44.3753 38.6378 44.8343 38.6373C46.4687 38.64 48.0353 39.2911 49.191 40.4479C50.3467 41.6047 50.9971 43.1728 50.9998 44.8088V44.8391Z" fill="#D0DBEF"/>
<path d="M17.8578 4.62352C17.3115 5.26079 16.5915 5.72486 15.7858 5.95898C14.9593 6.12055 14.1039 6.04335 13.3196 5.7364L13.4914 1.09265C13.4976 0.839081 13.587 0.594612 13.746 0.397087C13.905 0.199563 14.1245 0.0599985 14.3708 0H14.6234C14.8307 0.0017992 15.0337 0.0590281 15.2114 0.165759C15.3891 0.272489 15.5351 0.424839 15.6342 0.607027L17.8578 4.62352Z" fill="#2B2F37"/>
<path d="M34.9088 19.3639C32.714 19.4773 30.5134 19.3416 28.3491 18.9592C28.4805 17.5226 28.6827 16.0961 28.905 14.6797L34.9695 15.054C35.0251 16.4907 35.0048 17.9294 34.9088 19.3639Z" fill="#FCF6D4"/>
<path d="M28.9254 14.6803C28.9254 14.6803 25.3878 11.4731 28.6019 7.92203C31.2703 4.97795 32.3214 2.97476 32.2608 1.06263C32.2598 0.983205 32.281 0.905081 32.3221 0.837127C32.3632 0.769172 32.4225 0.714107 32.4933 0.67818C32.5738 0.642313 32.6634 0.631814 32.75 0.648077C32.8367 0.664339 32.9163 0.706595 32.9784 0.769234C35.1414 2.89383 40.0536 8.86292 34.8685 15.0849" fill="#7D543C"/>
<path d="M33.1198 12.8188C32.9566 12.8181 32.7966 12.7724 32.6576 12.6867C32.5185 12.6011 32.4057 12.4788 32.3315 12.3332C32.2572 12.1876 32.2254 12.024 32.2397 11.8612C32.254 11.6984 32.3138 11.5429 32.4123 11.4125C33.1768 10.3596 33.4931 9.04618 33.2917 7.76024C33.2471 7.60937 33.2432 7.44938 33.2805 7.29654C33.3178 7.14371 33.3949 7.00349 33.5039 6.89017C33.6168 6.78011 33.756 6.70091 33.9082 6.66016C34.0604 6.61942 34.2205 6.61849 34.3732 6.65748C34.5239 6.70136 34.6603 6.78437 34.7686 6.89809C34.8769 7.01181 34.9532 7.15219 34.9897 7.30497C35.1649 8.20253 35.1511 9.12679 34.9492 10.0187C34.7473 10.9106 34.3618 11.7506 33.8173 12.4849C33.7346 12.5907 33.6287 12.6758 33.5077 12.7337C33.3867 12.7917 33.2539 12.8208 33.1198 12.8188Z" fill="#5C402F"/>
<path d="M21.7591 45.7189C21.5866 45.7187 21.418 45.6678 21.2742 45.5725C21.1305 45.4771 21.0179 45.3416 20.9505 45.1827C20.6663 44.5175 20.5185 43.8018 20.5159 43.0783C20.4957 41.8602 20.896 40.6724 21.6493 39.7155C22.4027 38.7586 23.4628 38.0912 24.6508 37.8261C25.8387 37.5609 27.0817 37.7142 28.1698 38.2601C29.2579 38.8059 30.1245 39.7109 30.6233 40.8222C30.7177 41.0348 30.7263 41.2758 30.6471 41.4946C30.568 41.7134 30.4073 41.893 30.1988 41.9958C30.094 42.0453 29.9804 42.0735 29.8647 42.079C29.7489 42.0844 29.6333 42.0668 29.5243 42.0273C29.4153 41.9878 29.3153 41.9272 29.2298 41.8489C29.1443 41.7705 29.0752 41.6761 29.0263 41.5709C28.7463 40.9628 28.297 40.4484 27.7323 40.0895C27.1676 39.7307 26.5114 39.5424 25.8425 39.5475C25.3797 39.5475 24.9215 39.6389 24.4941 39.8164C24.0667 39.994 23.6785 40.2542 23.3517 40.5822C23.025 40.9102 22.7661 41.2996 22.5899 41.7279C22.4138 42.1562 22.3238 42.6151 22.3251 43.0783C22.3232 43.5647 22.4195 44.0465 22.6081 44.4947C22.6531 44.6003 22.6764 44.7138 22.6764 44.8286C22.6764 44.9434 22.6531 45.0569 22.6081 45.1625C22.566 45.2715 22.5022 45.3707 22.4205 45.4542C22.3389 45.5377 22.241 45.6037 22.1331 45.6481C22.0144 45.6967 21.8872 45.7208 21.7591 45.7189Z" fill="#7F9ECB"/>
<path d="M35.1513 43.362C34.9829 43.3616 34.818 43.3128 34.6765 43.2213C34.5349 43.1298 34.4226 42.9996 34.3529 42.8461C34.1402 42.3888 33.8021 42.0015 33.378 41.7293C32.9539 41.457 32.4612 41.311 31.9574 41.3083C31.3652 41.3092 30.791 41.5126 30.3301 41.8849C30.2398 41.9573 30.1362 42.0112 30.0252 42.0436C29.9141 42.0759 29.7977 42.086 29.6828 42.0733C29.5678 42.0606 29.4564 42.0254 29.3551 41.9696C29.2537 41.9139 29.1643 41.8387 29.0919 41.7483C29.0196 41.658 28.9658 41.5543 28.9335 41.4431C28.9012 41.3319 28.8911 41.2155 28.9037 41.1004C28.9164 40.9853 28.9516 40.8738 29.0073 40.7724C29.063 40.6709 29.1381 40.5814 29.2284 40.509C30.0013 39.8854 30.9646 39.5461 31.9574 39.5479C32.8112 39.5452 33.6475 39.7904 34.3651 40.2537C35.0826 40.7169 35.6506 41.3784 36.0004 42.1581C36.0615 42.2928 36.0878 42.4407 36.0767 42.5883C36.0657 42.7358 36.0176 42.8782 35.937 43.0022C35.8564 43.1263 35.7459 43.228 35.6156 43.2979C35.4854 43.3679 35.3396 43.4039 35.1918 43.4025L35.1513 43.362Z" fill="#7F9ECB"/>
<path d="M12.2785 38.6678C12.0453 38.6678 11.8216 38.575 11.6567 38.4099C11.4918 38.2449 11.3992 38.021 11.3992 37.7876C11.4319 36.8179 11.759 35.8812 12.3368 35.1023C12.9146 34.3233 13.7157 33.739 14.6335 33.4271C14.8365 33.4012 15.0422 33.4461 15.216 33.5542C15.3897 33.6624 15.5209 33.8273 15.5874 34.021C15.6538 34.2147 15.6516 34.4254 15.5809 34.6176C15.5103 34.8098 15.3756 34.9718 15.1996 35.0762C14.6364 35.2743 14.1441 35.6343 13.7845 36.1113C13.4249 36.5882 13.214 37.1608 13.1781 37.7572C13.1822 37.8771 13.1619 37.9965 13.1183 38.1082C13.0747 38.2199 13.0088 38.3214 12.9245 38.4067C12.8403 38.492 12.7395 38.5591 12.6284 38.604C12.5174 38.6489 12.3983 38.6706 12.2785 38.6678Z" fill="#7F9ECB"/>
<path d="M27.2376 32.506C27.1672 32.5165 27.0957 32.5165 27.0253 32.506C26.7981 32.4486 26.6027 32.3038 26.4815 32.103C26.3604 31.9021 26.3234 31.6616 26.3784 31.4336C26.6703 30.253 27.344 29.2021 28.2946 28.4445C29.2452 27.687 30.4194 27.2653 31.6343 27.2451C31.8675 27.2451 32.0912 27.3379 32.2561 27.5029C32.421 27.668 32.5136 27.8919 32.5136 28.1253C32.515 28.2404 32.4935 28.3546 32.4504 28.4614C32.4073 28.5681 32.3435 28.6652 32.2626 28.7471C32.1818 28.829 32.0855 28.894 31.9794 28.9383C31.8733 28.9827 31.7594 29.0055 31.6444 29.0055C30.8202 29.0277 30.0259 29.3197 29.3833 29.8368C28.7407 30.3539 28.2852 31.0676 28.0866 31.8686C28.0352 32.0538 27.9241 32.2168 27.7705 32.3321C27.6169 32.4474 27.4295 32.5085 27.2376 32.506Z" fill="#7F9ECB"/>
<path d="M50.9393 17.6234C50.9542 17.6925 50.9529 17.7642 50.9353 17.8327C50.9178 17.9011 50.8845 17.9646 50.8382 18.018C49.7037 19.3326 48.789 20.8222 48.1294 22.4291C47.8272 22.6596 47.4843 22.8312 47.1187 22.9349C46.1601 23.1885 45.1437 23.1064 44.2381 22.7022C43.299 22.3506 42.5124 21.6814 42.0145 20.8103C41.8281 20.4983 41.6981 20.1558 41.6304 19.7986C42.3149 18.1907 42.7347 16.4824 42.8736 14.74C42.8778 14.6683 42.8992 14.5985 42.9362 14.5369C42.9732 14.4752 43.0245 14.4234 43.0858 14.3859L48.0183 11.3002L49.3019 10.501L49.6456 11.968L50.9393 17.6234Z" fill="#787878"/>
<path d="M49.2919 10.4814L46.6033 16.9867L44.2583 22.7029C43.3193 22.3514 42.5326 21.6821 42.0347 20.811C41.8483 20.499 41.7183 20.1565 41.6506 19.7993C42.3352 18.1914 42.755 16.4831 42.8938 14.7407C42.898 14.669 42.9195 14.5992 42.9565 14.5376C42.9934 14.4759 43.0448 14.4241 43.1061 14.3866L48.0385 11.3009L49.2919 10.4814Z" fill="#D8D8D8"/>
<path d="M49.6354 11.9477L47.7352 16.5105C47.6717 16.6729 47.5603 16.8122 47.4159 16.9097C47.2715 17.0073 47.1008 17.0586 46.9266 17.0569C46.8148 17.0588 46.704 17.0346 46.6032 16.986C46.4425 16.9201 46.305 16.8081 46.2079 16.6641C46.1107 16.52 46.0584 16.3504 46.0574 16.1767C46.0614 16.0671 46.0783 15.9585 46.1079 15.8529L47.998 11.3002L49.2816 10.501L49.6354 11.9477Z" fill="#363735"/>
</svg>
