<?xml version="1.0" encoding="UTF-8"?>
<svg width="32px" height="32px" viewBox="0 0 32 32" version="1.1" xmlns="http://www.w3.org/2000/svg" xmlns:xlink="http://www.w3.org/1999/xlink">
    <!-- Generator: sketchtool 61 (101010) - https://sketch.com -->
    <title>3CAB51C8-C3B2-4D78-B517-87A3D95F3407</title>
    <desc>Created with sketchtool.</desc>
    <g id="App-Mockups" stroke="none" stroke-width="1" fill="none" fill-rule="evenodd">
        <g id="L---Editor---3---bg-image-settings" transform="translate(-328.000000, -420.000000)">
            <g id="Group-7" transform="translate(64.000000, 396.000000)">
                <g id="Group-6" transform="translate(0.000000, 24.000000)">
                    <g id="Group-4-Copy" transform="translate(264.000000, 0.000000)">
                        <rect id="Rectangle" fill-opacity="0.2" fill="#FFFFFF" opacity="0.01" x="0" y="0" width="32" height="32" rx="4"></rect>
                        <rect id="Rectangle" stroke="#A6C8EC" fill="#FFFFFF" x="8" y="8" width="16" height="16" rx="4"></rect>
                        <path d="M12,8 L16,8 L16,8 L16,16 L8,16 L8,12 C8,9.790861 9.790861,8 12,8 Z" id="Rectangle" fill="#4E91D9"></path>
                        <path d="M16,8 L20,8 C22.209139,8 24,9.790861 24,12 L24,16 L24,16 L16,16 L16,8 Z" id="Rectangle-Copy" fill="#4ED98C"></path>
                        <path d="M16,16 L24,16 L24,20 C24,22.209139 22.209139,24 20,24 L16,24 L16,24 L16,16 Z" id="Rectangle-Copy-3" fill="#FFD948"></path>
                        <path d="M8,16 L16,16 L16,24 L12,24 C9.790861,24 8,22.209139 8,20 L8,16 L8,16 Z" id="Rectangle-Copy-4" fill="#D94E4E"></path>
                    </g>
                </g>
            </g>
        </g>
    </g>
</svg>