<svg width="57" height="55" viewBox="0 0 57 55" fill="none" xmlns="http://www.w3.org/2000/svg">
<path d="M52.3401 0.830078H4.66006C3.63979 0.832718 2.66206 1.23919 1.94061 1.96063C1.21917 2.68208 0.812698 3.65981 0.810059 4.68008V38.7401C0.812706 39.7594 1.2195 40.7361 1.94123 41.456C2.66296 42.1758 3.64071 42.5801 4.66006 42.5801H22.2101V47.0001H18.8701C18.0934 47.0016 17.3357 47.2397 16.6979 47.6828C16.0601 48.1259 15.5725 48.7528 15.3001 49.4801L13.4801 54.4201H44.6901L42.8601 49.4801C42.5894 48.7536 42.1036 48.127 41.4675 47.6838C40.8314 47.2407 40.0753 47.0022 39.3001 47.0001H34.7901V42.5801H52.3401C53.3594 42.5801 54.3372 42.1758 55.0589 41.456C55.7806 40.7361 56.1874 39.7594 56.1901 38.7401V4.68008C56.1874 3.65981 55.7809 2.68208 55.0595 1.96063C54.3381 1.23919 53.3603 0.832718 52.3401 0.830078ZM39.3001 49.0001C39.6692 48.9972 40.0303 49.108 40.3344 49.3173C40.6385 49.5265 40.8709 49.8243 41.0001 50.1701L41.8201 52.4101H16.3501L17.1801 50.1701C17.3087 49.8259 17.5395 49.5293 17.8416 49.3201C18.1437 49.111 18.5026 48.9993 18.8701 49.0001H39.3001ZM24.2101 47.0001V42.5801H32.7901V47.0001H24.2101ZM54.2101 38.7501C54.2101 38.9926 54.1621 39.2326 54.069 39.4565C53.976 39.6804 53.8395 39.8837 53.6676 40.0547C53.4957 40.2257 53.2917 40.361 53.0673 40.4529C52.8429 40.5448 52.6025 40.5914 52.3601 40.5901H4.66006C4.41759 40.5914 4.17724 40.5448 3.95285 40.4529C3.72846 40.361 3.52443 40.2257 3.35251 40.0547C3.18059 39.8837 3.04416 39.6804 2.95107 39.4565C2.85798 39.2326 2.81006 38.9926 2.81006 38.7501V34.7501H54.1901L54.2101 38.7501ZM54.2101 32.7501H2.81006V7.46008H54.1901L54.2101 32.7501ZM54.2101 5.50008H2.81006V4.68008C2.81006 4.18943 3.00497 3.71887 3.35191 3.37193C3.69885 3.02499 4.16941 2.83008 4.66006 2.83008H52.3401C52.8307 2.83008 53.3013 3.02499 53.6482 3.37193C53.9951 3.71887 54.1901 4.18943 54.1901 4.68008L54.2101 5.50008Z" fill="#CBCBCB"/>
</svg> 
