<svg width="216" height="92" viewBox="0 0 216 92" fill="none" xmlns="http://www.w3.org/2000/svg">
<path d="M21.9948 71.9101C24.0103 73.0805 26.0909 74.0557 28.3015 74.7709C29.992 75.2911 31.8125 75.7462 33.4379 75.6161C37.0789 75.6161 37.0139 78.9321 36.1037 80.2974C35.4535 81.2727 34.8033 81.9229 30.3171 80.4925C24.4655 78.607 14.3877 75.4211 5.74032 62.0924C-2.90705 48.7638 0.34384 31.339 1.96929 27.698C3.59473 24.057 6.84562 11.0534 31.5524 8.45271C56.2592 5.852 67.9624 35.11 67.9624 35.11L72.0585 42.7821C72.0585 42.7821 65.0366 42.262 61.9157 35.4351C58.7949 28.6082 55.674 25.8125 55.674 25.8125C55.674 25.8125 48.7171 17.8803 38.8344 17.0351C28.9517 16.1898 20.6944 18.3354 12.4372 29.3234C4.17989 40.3115 6.78061 53.7051 9.38132 58.0613C11.917 62.2875 13.4124 65.3433 20.5644 70.9349C21.0195 71.26 21.4746 71.585 21.9948 71.9101Z" fill="url(#paint0_linear)"/>
<path d="M6.13081 20.4156C5.88082 20.7577 5.25769 20.4303 5.46443 20.0604C7.08148 17.1676 9.14995 14.1868 11.6573 11.9633C18.5492 5.8516 26.3514 0 42.6058 0C58.8603 0 72.579 12.9385 75.7649 19.4403C79.666 26.0071 84.6073 35.8899 78.2356 41.0263C71.8638 46.1627 63.9317 39.4008 63.0214 35.9549C62.3479 33.4053 61.6033 31.532 61.2615 30.7299C61.1378 30.4398 61.011 30.1538 60.8821 29.866C59.9974 27.8907 56.0747 19.6743 50.603 16.2545C46.6369 13.8488 44.1012 12.4184 39.8751 11.1831C36.5592 10.2078 32.7881 9.49261 27.6517 9.75268C13.998 10.4029 7.36615 18.7251 6.13081 20.4156Z" fill="url(#paint1_linear)"/>
<path d="M73.1631 41.3516H72.773C68.0917 41.0266 64.4507 37.9707 63.1503 33.4845C61.0698 26.0725 56.3885 14.3042 39.939 9.68795C23.4894 5.07168 6.5848 12.1586 1.77348 28.4781C1.8385 28.218 1.90352 28.023 1.96854 27.7629C1.70847 28.4781 1.51341 29.1933 1.31836 29.9085C6.12968 13.654 23.0343 6.50208 39.4838 11.1184C55.9333 15.7346 60.6796 27.5679 62.6952 34.9149C63.9305 39.4011 67.6366 42.522 72.3178 42.782H72.708C76.8691 43.0421 80.25 40.1813 81.0953 36.4103C79.7949 39.4661 76.7391 41.6117 73.1631 41.3516Z" fill="url(#paint2_linear)"/>
<defs>
<linearGradient id="paint0_linear" x1="11.4545" y1="57.0325" x2="68.9331" y2="13.5554" gradientUnits="userSpaceOnUse">
<stop stop-color="#9B3DB4"/>
<stop offset="0.9993" stop-color="#00E6FF"/>
</linearGradient>
<linearGradient id="paint1_linear" x1="1.1942" y1="21.4502" x2="81.1497" y2="21.4502" gradientUnits="userSpaceOnUse">
<stop stop-color="#FF9D00"/>
<stop offset="0.9993" stop-color="#FF55E1"/>
</linearGradient>
<linearGradient id="paint2_linear" x1="5.94864" y1="15.0942" x2="80.3988" y2="38.6537" gradientUnits="userSpaceOnUse">
<stop stop-color="#8927B5"/>
<stop offset="1" stop-color="#8786FC" stop-opacity="0"/>
</linearGradient>
</defs>
</svg>
