<svg width="31" height="51" viewBox="0 0 31 51" fill="none" xmlns="http://www.w3.org/2000/svg">
<path d="M26.83 0H4.16999C2.13758 0 0.48999 1.64759 0.48999 3.68V47.32C0.48999 49.3524 2.13758 51 4.16999 51H26.83C28.8624 51 30.51 49.3524 30.51 47.32V3.68C30.51 1.64759 28.8624 0 26.83 0Z" fill="#363735"/>
<path d="M30.51 3.67969H0.48999V44.3397H30.51V3.67969Z" fill="#D8D8D8"/>
<path d="M26.8301 0H22.3401C22.8051 1.19597 23.1762 2.42636 23.4501 3.68H30.5101C30.5101 3.19674 30.4149 2.7182 30.23 2.27173C30.045 1.82525 29.774 1.41957 29.4322 1.07785C29.0905 0.736127 28.6848 0.465061 28.2384 0.280123C27.7919 0.0951859 27.3134 0 26.8301 0Z" fill="#1B1B1B"/>
<path d="M22 51.0003H26.82C27.796 51.0003 28.732 50.6126 29.4222 49.9225C30.1123 49.2323 30.5 48.2963 30.5 47.3203V44.3203H23.64C23.2563 46.5839 22.7082 48.8164 22 51.0003Z" fill="#1B1B1B"/>
<path d="M23.45 3.67969C25.74 13.5697 25.8499 31.9497 23.6399 44.3297H30.5099V3.67969H23.45Z" fill="#C3C3C4"/>
<path d="M15.5 49.25C16.6046 49.25 17.5 48.3546 17.5 47.25C17.5 46.1454 16.6046 45.25 15.5 45.25C14.3954 45.25 13.5 46.1454 13.5 47.25C13.5 48.3546 14.3954 49.25 15.5 49.25Z" fill="#787878"/>
<path d="M17.9299 1.5H13.0799C12.8535 1.5 12.6699 1.68132 12.6699 1.905C12.6699 2.12868 12.8535 2.31 13.0799 2.31H17.9299C18.1564 2.31 18.3399 2.12868 18.3399 1.905C18.3399 1.68132 18.1564 1.5 17.9299 1.5Z" fill="#787878"/>
</svg>
