<svg width="61" height="61" viewBox="0 0 61 61" fill="none" xmlns="http://www.w3.org/2000/svg">
<path d="M52.53 47.7808H8.26001V42.5508H52.54V47.7808H52.53ZM10.26 45.7808H50.54V44.5508H10.26V45.7808Z" fill="#CBCBCB"/>
<path d="M56.74 59.4203H4.26001V45.7803H56.74V59.4203ZM6.26001 57.4203H54.74V47.7803H6.26001V57.4203Z" fill="#CBCBCB"/>
<path d="M8.43994 50.5205C8.99223 50.5205 9.43994 50.0728 9.43994 49.5205C9.43994 48.9682 8.99223 48.5205 8.43994 48.5205C7.88766 48.5205 7.43994 48.9682 7.43994 49.5205C7.43994 50.0728 7.88766 50.5205 8.43994 50.5205Z" fill="#CBCBCB"/>
<path d="M8.43994 56.8105C8.99223 56.8105 9.43994 56.3628 9.43994 55.8105C9.43994 55.2583 8.99223 54.8105 8.43994 54.8105C7.88766 54.8105 7.43994 55.2583 7.43994 55.8105C7.43994 56.3628 7.88766 56.8105 8.43994 56.8105Z" fill="#CBCBCB"/>
<path d="M52.53 50.5205C53.0823 50.5205 53.53 50.0728 53.53 49.5205C53.53 48.9682 53.0823 48.5205 52.53 48.5205C51.9777 48.5205 51.53 48.9682 51.53 49.5205C51.53 50.0728 51.9777 50.5205 52.53 50.5205Z" fill="#CBCBCB"/>
<path d="M52.53 56.8105C53.0823 56.8105 53.53 56.3628 53.53 55.8105C53.53 55.2583 53.0823 54.8105 52.53 54.8105C51.9777 54.8105 51.53 55.2583 51.53 55.8105C51.53 56.3628 51.9777 56.8105 52.53 56.8105Z" fill="#CBCBCB"/>
<path d="M45.47 13.9603C45.29 13.3903 44.81 12.9903 44.21 12.9003L35.72 11.6503L31.93 3.94031C31.67 3.41031 31.13 3.07031 30.53 3.07031C29.94 3.07031 29.4 3.40031 29.14 3.94031L25.32 11.6303L16.82 12.8503C16.23 12.9403 15.75 13.3403 15.56 13.9103C15.38 14.4803 15.53 15.0903 15.95 15.5103L22.09 21.5103L20.63 29.9803C20.52 30.5703 20.76 31.1503 21.24 31.5003C21.73 31.8503 22.35 31.9003 22.88 31.6203L26.89 29.5203L24.71 44.5503H36.26L34.08 29.5403L38.09 31.6503C38.32 31.7703 38.57 31.8303 38.82 31.8303C39.14 31.8303 39.46 31.7303 39.73 31.5303C40.21 31.1803 40.45 30.6003 40.35 30.0103L38.91 21.5403L45.07 15.5603C45.5 15.1403 45.65 14.5303 45.47 13.9603ZM33.95 42.5503H27.02L29.08 28.3803L30.18 27.8003H30.79L31.89 28.3803L33.95 42.5503ZM37.35 20.2703C36.98 20.6303 36.81 21.1403 36.9 21.6503L38.23 29.4603L33.73 27.0803L31.3 25.8003L31.22 25.7603C30.99 25.6403 30.74 25.5803 30.49 25.5803C30.25 25.5803 30 25.6403 29.77 25.7603L29.69 25.8003L27.24 27.0803L22.75 29.4303L24.1 21.6303C24.19 21.1203 24.02 20.6103 23.66 20.2503L17.99 14.7103L25.84 13.5803C26.34 13.5103 26.78 13.1903 27.01 12.7303L30.53 5.63031L34.02 12.7403C34.25 13.2003 34.69 13.5203 35.2 13.6003L43.04 14.7503L37.35 20.2703Z" fill="#CBCBCB"/>
<path d="M14.8201 23.45L15.8601 22.9C15.9601 22.85 16.0701 22.93 16.0501 23.04L15.8501 24.2C15.8401 24.24 15.8601 24.29 15.8901 24.32L16.7301 25.14C16.8101 25.22 16.7701 25.35 16.6601 25.37L15.4901 25.54C15.4501 25.55 15.4101 25.57 15.3901 25.61L14.8701 26.67C14.8201 26.77 14.6801 26.77 14.6301 26.67L14.1101 25.61C14.0901 25.57 14.0501 25.54 14.0101 25.54L12.8401 25.37C12.7301 25.35 12.6901 25.22 12.7701 25.14L13.6101 24.32C13.6401 24.29 13.6601 24.25 13.6501 24.2L13.4501 23.04C13.4301 22.93 13.5501 22.85 13.6401 22.9L14.6801 23.45C14.7301 23.47 14.7801 23.47 14.8201 23.45Z" fill="#CBCBCB"/>
<path d="M41.5999 6.48027L42.6399 5.93027C42.7399 5.88027 42.8499 5.96027 42.8299 6.07027L42.6299 7.23027C42.6199 7.27027 42.6399 7.32027 42.6699 7.35027L43.5099 8.17027C43.5899 8.25027 43.5499 8.38027 43.4399 8.40027L42.2699 8.57027C42.2299 8.58027 42.1899 8.60027 42.1699 8.64027L41.6499 9.70027C41.5999 9.80027 41.4599 9.80027 41.4099 9.70027L40.8899 8.64027C40.8699 8.60027 40.8299 8.57027 40.7899 8.57027L39.6199 8.40027C39.5099 8.38027 39.4699 8.25027 39.5499 8.17027L40.3899 7.35027C40.4199 7.32027 40.4399 7.28027 40.4299 7.23027L40.2299 6.07027C40.2099 5.96027 40.3299 5.88027 40.4199 5.93027L41.4599 6.48027C41.5099 6.50027 41.5599 6.50027 41.5999 6.48027Z" fill="#CBCBCB"/>
<path d="M16.41 21.4504C16.769 21.4504 17.06 21.1594 17.06 20.8004C17.06 20.4414 16.769 20.1504 16.41 20.1504C16.051 20.1504 15.76 20.4414 15.76 20.8004C15.76 21.1594 16.051 21.4504 16.41 21.4504Z" fill="#CBCBCB"/>
<path d="M37.0799 34.2805C37.4389 34.2805 37.7299 33.9895 37.7299 33.6305C37.7299 33.2715 37.4389 32.9805 37.0799 32.9805C36.7209 32.9805 36.4299 33.2715 36.4299 33.6305C36.4299 33.9895 36.7209 34.2805 37.0799 34.2805Z" fill="#CBCBCB"/>
<path d="M17.4501 22.8904C17.6655 22.8904 17.8401 22.7157 17.8401 22.5004C17.8401 22.285 17.6655 22.1104 17.4501 22.1104C17.2347 22.1104 17.0601 22.285 17.0601 22.5004C17.0601 22.7157 17.2347 22.8904 17.4501 22.8904Z" fill="#CBCBCB"/>
<path d="M37.0799 35.9206C37.2953 35.9206 37.4699 35.746 37.4699 35.5306C37.4699 35.3152 37.2953 35.1406 37.0799 35.1406C36.8646 35.1406 36.6899 35.3152 36.6899 35.5306C36.6899 35.746 36.8646 35.9206 37.0799 35.9206Z" fill="#CBCBCB"/>
<path d="M39.13 33.3698C39.3454 33.3698 39.52 33.1952 39.52 32.9798C39.52 32.7645 39.3454 32.5898 39.13 32.5898C38.9146 32.5898 38.74 32.7645 38.74 32.9798C38.74 33.1952 38.9146 33.3698 39.13 33.3698Z" fill="#CBCBCB"/>
<path d="M43.5499 10.5407C43.7653 10.5407 43.9399 10.3661 43.9399 10.1507C43.9399 9.93535 43.7653 9.76074 43.5499 9.76074C43.3345 9.76074 43.1599 9.93535 43.1599 10.1507C43.1599 10.3661 43.3345 10.5407 43.5499 10.5407Z" fill="#CBCBCB"/>
<path d="M42.4901 11.6999C42.7055 11.6999 42.8801 11.5253 42.8801 11.3099C42.8801 11.0945 42.7055 10.9199 42.4901 10.9199C42.2747 10.9199 42.1001 11.0945 42.1001 11.3099C42.1001 11.5253 42.2747 11.6999 42.4901 11.6999Z" fill="#CBCBCB"/>
<path d="M39.5101 11.32C39.7255 11.32 39.9001 11.1454 39.9001 10.93C39.9001 10.7146 39.7255 10.54 39.5101 10.54C39.2947 10.54 39.1201 10.7146 39.1201 10.93C39.1201 11.1454 39.2947 11.32 39.5101 11.32Z" fill="#CBCBCB"/>
</svg>
