<svg width="61" height="47" viewBox="0 0 61 47" fill="none" xmlns="http://www.w3.org/2000/svg">
<path d="M54.6495 47H6.33998C2.85037 47 0 43.8269 0 39.916V34.6119L1.03745 34.5533C6.29806 34.2372 10.4269 29.3779 10.4269 23.5C10.4269 17.6104 6.29806 12.7628 1.03745 12.4467L0 12.3881V7.08396C0 3.18485 2.83989 0 6.33998 0H54.66C58.1496 0 61 3.17314 61 7.08396V12.3764L59.9835 12.4584C54.8591 12.9033 50.8351 17.7509 50.8351 23.5C50.8351 29.2491 54.8486 34.0967 59.9835 34.5416L61 34.6353V39.9278C60.9895 43.8269 58.1496 47 54.6495 47ZM2.19017 36.8951V39.916C2.19017 42.4686 4.04501 44.5411 6.3295 44.5411H54.6495C56.934 44.5411 58.7889 42.4686 58.7889 39.916V36.86C53.0148 35.8062 48.6344 30.1507 48.6344 23.5117C48.6344 16.8727 53.0253 11.2172 58.7889 10.1634V7.09566C58.7889 4.5431 56.934 2.4706 54.6495 2.4706H6.33998C4.05549 2.4706 2.20065 4.5431 2.20065 7.09566V10.1166C8.12146 11.0416 12.6276 16.7088 12.6276 23.5117C12.6171 30.3029 8.12146 35.9818 2.19017 36.8951Z" fill="#CBCBCB"/>
<path d="M23.9034 19.0619C21.1263 19.0619 18.8733 16.5445 18.8733 13.4416C18.8733 10.3387 21.1263 7.82129 23.9034 7.82129C26.6804 7.82129 28.9334 10.3387 28.9334 13.4416C28.9334 16.5445 26.6804 19.0619 23.9034 19.0619ZM23.9034 9.84695C22.1219 9.84695 20.6862 11.4628 20.6862 13.4416C20.6862 15.4204 22.1324 17.0363 23.9034 17.0363C25.6848 17.0363 27.1205 15.4204 27.1205 13.4416C27.1205 11.4628 25.6848 9.84695 23.9034 9.84695Z" fill="#CBCBCB"/>
<path d="M37.0862 37.0707C34.3092 37.0707 32.0562 34.5533 32.0562 31.4504C32.0562 28.3475 34.3092 25.8301 37.0862 25.8301C39.8632 25.8301 42.1163 28.3475 42.1163 31.4504C42.1163 34.5533 39.8528 37.0707 37.0862 37.0707ZM37.0862 27.8557C35.3047 27.8557 33.8691 29.4716 33.8691 31.4504C33.8691 33.4409 35.3152 35.0451 37.0862 35.0451C38.8572 35.0451 40.3034 33.4292 40.3034 31.4504C40.3034 29.4716 38.8572 27.8557 37.0862 27.8557Z" fill="#CBCBCB"/>
<path d="M37.4871 9.35087L35.0112 8.1084L23.9086 35.7294L26.3844 36.9718L37.4871 9.35087Z" fill="#CBCBCB"/>
</svg>
