<?xml version="1.0" encoding="UTF-8"?>
<svg width="29px" height="28px" viewBox="0 0 29 28" version="1.1" xmlns="http://www.w3.org/2000/svg" xmlns:xlink="http://www.w3.org/1999/xlink">
    <!-- Generator: sketchtool 60.1 (101010) - https://sketch.com -->
    <title>543BCEEB-86E8-40EE-909D-5843C17C6C7E</title>
    <desc>Created with sketchtool.</desc>
    <g id="Asset-Artboard-Page" stroke="none" stroke-width="1" fill="none" fill-rule="evenodd">
        <g id="icons-secondary/present-icon" transform="translate(0.599998, 0.000000)" fill-rule="nonzero">
            <g id="gift-box" transform="translate(0.000000, 0.875000)">
                <path d="M12.7536175,4.63410941 C12.5913596,4.42864847 8.74524232,-0.392382816 5.70899221,0.0265781252 C4.63241405,0.175218751 3.80329683,0.931875007 3.24477338,2.27549221 C2.47422648,4.12912503 2.41018741,5.63587505 3.05446087,6.75379693 C3.85656246,8.14559382 5.44643751,8.37014069 5.51370314,8.37905475 C5.53147658,8.38140632 5.54941408,8.38255475 5.56735158,8.38255475 L12.4316721,8.38255475 C12.6581878,8.38255475 12.8418285,8.19891413 12.8418285,7.9723985 L12.8418285,4.88829691 C12.8418285,4.79609379 12.8107659,4.70651566 12.7536175,4.63410941 Z" id="Path" fill="#FF3D43"></path>
                <path d="M24.7026723,2.27549227 C24.1441488,0.931875035 23.3150863,0.175218757 22.2385082,0.026578126 C19.2028599,-0.392492202 15.3560865,4.42870329 15.1938834,4.63410955 C15.1367349,4.7065158 15.1056178,4.79609393 15.1056178,4.88829706 L15.1056178,7.97239874 C15.1056178,8.19891437 15.2892584,8.382555 15.515774,8.382555 L22.3800942,8.382555 C22.3980317,8.382555 22.4159692,8.38140657 22.4337426,8.379055 C22.5010082,8.37014094 24.0908832,8.14559406 24.8929848,6.75379713 C25.5373129,5.63582052 25.4732738,4.12912516 24.7026723,2.27549227 Z" id="Path" fill="#FF3D43"></path>
                <path d="M12.4317269,6.49583589 L5.56740636,6.49583589 C5.54946886,6.49583589 5.53153136,6.49468745 5.51375793,6.49233589 C5.4464923,6.48342183 3.85661726,6.25892965 3.05451567,4.86707812 C2.89985942,4.59872656 2.78649223,4.30773438 2.71342973,3.99519533 C2.50960941,5.08079686 2.62281254,6.00474215 3.05451567,6.75379682 C3.85661726,8.14559366 5.4464923,8.37014053 5.51375793,8.37905459 C5.53153136,8.38140615 5.54946886,8.38255459 5.56740636,8.38255459 L12.4317269,8.38255459 C12.6582425,8.38255459 12.8418831,8.19891397 12.8418831,7.97239835 L12.8418831,6.08567965 C12.8418831,6.31219527 12.6582425,6.49583589 12.4317269,6.49583589 Z" id="Path" fill="#D62D2D"></path>
                <path d="M24.8929852,4.86707812 C24.0908836,6.25887496 22.5010086,6.48342183 22.433743,6.49233589 C22.4159695,6.49468745 22.398032,6.49583589 22.3800945,6.49583589 L15.515774,6.49583589 C15.2892584,6.49583589 15.1056178,6.31219527 15.1056178,6.08567965 L15.1056178,7.97239835 C15.1056178,8.19891397 15.2892584,8.38255459 15.515774,8.38255459 L22.3800945,8.38255459 C22.398032,8.38255459 22.4159695,8.38140615 22.433743,8.37905459 C22.5010086,8.37014053 24.0908836,8.14559366 24.8929852,6.75379682 C25.3246883,6.00468746 25.4378915,5.08079686 25.2340712,3.99519533 C25.1610633,4.30773438 25.0476415,4.59872656 24.8929852,4.86707812 Z" id="Path" fill="#D62D2D"></path>
                <path d="M15.5157736,4.47814071 L12.4316722,4.47814071 C12.2051566,4.47814071 12.021516,4.66178133 12.021516,4.88829694 L12.021516,7.97239836 C12.021516,8.19891397 12.2051566,8.38255459 12.4316722,8.38255459 L15.5157736,8.38255459 C15.7422892,8.38255459 15.9259298,8.19891397 15.9259298,7.97239836 L15.9259298,4.88829694 C15.9259298,4.66178133 15.7422892,4.47814071 15.5157736,4.47814071 Z" id="Path" fill="#D62D2D"></path>
                <path d="M25.4652349,11.6137655 L2.4822656,11.6137655 C2.25574997,11.6137655 2.07210934,11.7974061 2.07210934,12.0239217 L2.07210934,23.9768597 C2.07210934,24.9597035 2.8716953,25.7592895 3.85453907,25.7592895 L24.0929614,25.7592895 C25.0758052,25.7592895 25.8753911,24.9597035 25.8753911,23.9768597 L25.8753911,12.0239217 C25.8753911,11.7973514 25.6917505,11.6137655 25.4652349,11.6137655 Z" id="Path" fill="#FFD039"></path>
                <path d="M27.5373442,7.56224251 L0.410156257,7.56224251 C0.183640628,7.56224251 0,7.74588313 0,7.97239876 L0,12.0238675 C0,12.2503831 0.183640628,12.4340237 0.410156257,12.4340237 L27.5373442,12.4340237 C27.7638598,12.4340237 27.9475005,12.2503831 27.9475005,12.0238675 L27.9475005,7.97239876 C27.9475005,7.74588313 27.7638598,7.56224251 27.5373442,7.56224251 Z" id="Path" fill="#FFDF65"></path>
                <path d="M16.0017268,7.56224251 L11.945719,7.56224251 C11.7192034,7.56224251 11.5355628,7.74588313 11.5355628,7.97239875 L11.5355628,25.3490782 C11.5355628,25.5755938 11.7192034,25.7592344 11.945719,25.7592344 L16.0017268,25.7592344 C16.2282424,25.7592344 16.4118831,25.5755938 16.4118831,25.3490782 L16.4118831,7.97239875 C16.4118831,7.74588313 16.2282971,7.56224251 16.0017268,7.56224251 Z" id="Path" fill="#FF3D43"></path>
            </g>
        </g>
    </g>
</svg>