<?xml version="1.0" encoding="UTF-8"?>
<svg width="33px" height="32px" viewBox="0 0 33 32" version="1.1" xmlns="http://www.w3.org/2000/svg" xmlns:xlink="http://www.w3.org/1999/xlink">
    <!-- Generator: sketchtool 60.1 (101010) - https://sketch.com -->
    <title>AC95E656-0267-4D26-BEA4-3AEB8E56B3CD</title>
    <desc>Created with sketchtool.</desc>
    <g id="Asset-Artboard-Page" stroke="none" stroke-width="1" fill="none" fill-rule="evenodd" fill-opacity="0.3">
        <g id="icon-icons/user" transform="translate(0.141732, 0.000000)" fill="#4E91D9" stroke="#4E91D9">
            <path d="M20,18.5 L12,18.5 C10.6192881,18.5 9.5,19.6192881 9.5,21 C9.5,22.3807119 10.6192881,23.5 12,23.5 L20,23.5 C21.3807119,23.5 22.5,22.3807119 22.5,21 C22.5,19.6192881 21.3807119,18.5 20,18.5 Z M16,8.5 C14.0670034,8.5 12.5,10.0670034 12.5,12 C12.5,13.9329966 14.0670034,15.5 16,15.5 C17.9329966,15.5 19.5,13.9329966 19.5,12 C19.5,10.0670034 17.9329966,8.5 16,8.5 Z" id="user-icon"></path>
        </g>
    </g>
</svg>